<svg 
 xmlns="http://www.w3.org/2000/svg"
 xmlns:xlink="http://www.w3.org/1999/xlink"
 width="11px" height="11px">
<path fill-rule="evenodd"  fill="rgb(168, 149, 116)"
 d="M9.000,6.000 C8.448,6.000 8.000,5.552 8.000,5.000 L8.000,4.000 C8.000,3.595 8.243,3.250 8.590,3.093 L7.873,3.155 C7.793,2.806 7.611,2.461 7.204,2.483 C6.394,2.528 3.245,2.348 2.705,2.528 C2.296,2.665 2.154,3.003 2.070,3.665 L1.935,3.677 C1.970,3.779 2.000,3.885 2.000,4.000 L2.000,5.000 C2.000,5.552 1.552,6.000 1.000,6.000 C0.448,6.000 -0.000,5.552 -0.000,5.000 L-0.000,4.000 C-0.000,3.945 0.023,3.897 0.032,3.844 L0.031,3.844 C0.031,3.843 0.032,3.842 0.032,3.840 C0.049,3.738 0.073,3.640 0.119,3.551 C0.543,2.220 2.513,1.262 3.076,1.121 C3.680,0.971 4.471,0.952 5.375,0.938 C5.946,0.928 5.835,1.074 6.892,1.037 C7.949,0.999 10.000,2.969 10.000,2.969 L9.195,3.039 C9.651,3.133 10.000,3.517 10.000,4.000 L10.000,5.000 C10.000,5.552 9.552,6.000 9.000,6.000 ZM0.704,9.060 C1.506,8.097 2.850,6.558 3.812,5.850 C5.141,4.873 5.998,5.756 9.154,9.031 C9.590,9.102 9.922,9.442 9.976,9.883 C9.996,9.904 10.010,9.918 10.030,9.939 L9.988,9.939 C9.989,9.960 10.000,9.978 10.000,10.000 C10.000,10.552 9.552,11.000 9.000,11.000 L1.000,11.000 C0.448,11.000 -0.000,10.552 -0.000,10.000 C-0.000,9.553 0.299,9.188 0.704,9.060 ZM4.875,9.587 C5.596,9.587 6.181,9.003 6.181,8.281 C6.181,7.560 5.596,6.976 4.875,6.976 C4.154,6.976 3.569,7.560 3.569,8.281 C3.569,9.003 4.154,9.587 4.875,9.587 Z"/>
</svg>