<svg 
 xmlns="http://www.w3.org/2000/svg"
 xmlns:xlink="http://www.w3.org/1999/xlink"
 width="9px" height="13px">
<path fill-rule="evenodd"  fill="rgb(168, 149, 116)"
 d="M7.608,6.645 L4.491,12.369 L1.286,6.677 C1.139,6.468 1.012,6.246 0.909,6.009 L0.901,5.994 L0.901,5.994 C0.701,5.529 0.589,5.018 0.589,4.480 C0.589,2.356 2.310,0.635 4.434,0.635 C6.557,0.635 8.278,2.356 8.278,4.480 C8.278,5.283 8.030,6.028 7.608,6.645 ZM4.434,2.691 C3.519,2.691 2.777,3.432 2.777,4.347 C2.777,5.262 3.519,6.003 4.434,6.003 C5.348,6.003 6.090,5.262 6.090,4.347 C6.090,3.432 5.348,2.691 4.434,2.691 Z"/>
</svg>