<svg 
 xmlns="http://www.w3.org/2000/svg"
 xmlns:xlink="http://www.w3.org/1999/xlink"
 width="0.542in" height="0.583in">
<path fill-rule="evenodd"  fill="rgb(80, 195, 175)"
 d="M38.076,30.999 C38.069,31.916 37.324,32.655 36.411,32.655 C36.406,32.655 36.402,32.655 36.398,32.655 C35.478,32.647 34.738,31.895 34.745,30.973 L34.831,19.730 C34.863,15.595 33.285,11.695 30.389,8.748 C27.492,5.802 23.623,4.162 19.496,4.130 C19.455,4.129 19.415,4.129 19.375,4.129 C10.909,4.129 3.988,10.996 3.923,19.493 L3.837,30.736 C3.830,31.653 3.086,32.391 2.172,32.391 C2.168,32.391 2.163,32.391 2.159,32.391 C1.239,32.384 0.500,31.632 0.507,30.711 L0.593,19.467 C0.672,9.091 9.175,0.700 19.521,0.794 C24.539,0.833 29.241,2.826 32.762,6.408 C36.282,9.989 38.200,14.729 38.161,19.755 L38.076,30.999 ZM13.580,19.784 L13.689,19.785 C14.076,19.788 14.446,19.944 14.717,20.220 C14.988,20.496 15.138,20.869 15.136,21.256 L14.992,39.961 C14.986,40.764 14.335,41.410 13.535,41.410 C13.531,41.410 13.528,41.410 13.524,41.410 C9.838,41.381 8.030,39.928 7.162,38.715 C6.178,37.339 6.160,35.955 6.161,35.801 L6.242,25.280 C6.256,23.379 7.809,19.784 13.580,19.784 ZM12.090,38.373 L12.210,22.799 C9.411,23.225 9.173,24.946 9.155,25.329 L9.075,35.824 C9.087,36.187 9.300,37.906 12.090,38.373 ZM25.375,19.874 C25.379,19.874 25.382,19.874 25.386,19.874 C29.072,19.903 30.881,21.356 31.749,22.570 C32.732,23.946 32.750,25.330 32.749,25.484 L32.669,36.005 C32.654,37.905 31.101,41.500 25.331,41.500 C25.330,41.500 25.331,41.500 25.330,41.500 L25.220,41.500 C24.416,41.493 23.769,40.835 23.775,40.029 L23.918,21.323 C23.924,20.521 24.576,19.874 25.375,19.874 ZM29.755,35.956 L29.835,25.461 C29.823,25.098 29.611,23.379 26.820,22.911 L26.700,38.485 C29.500,38.060 29.737,36.340 29.755,35.956 Z"/>
</svg>