<svg 
 xmlns="http://www.w3.org/2000/svg"
 xmlns:xlink="http://www.w3.org/1999/xlink"
 width="0.542in" height="0.486in">
<path fill-rule="evenodd"  fill="rgb(80, 195, 175)"
 d="M34.885,19.254 C27.130,27.893 20.278,34.017 20.210,34.078 C19.894,34.359 19.497,34.500 19.100,34.500 C18.704,34.500 18.307,34.359 17.990,34.078 C17.922,34.017 11.070,27.893 3.315,19.254 C0.112,15.687 -0.700,11.094 1.142,6.969 C2.925,2.979 6.709,0.400 10.784,0.400 C14.912,0.400 17.562,2.235 19.100,4.193 C20.638,2.235 23.289,0.400 27.417,0.400 C31.491,0.400 35.275,2.979 37.058,6.969 C38.900,11.094 38.088,15.687 34.885,19.254 ZM34.012,8.328 C32.785,5.579 30.134,3.733 27.417,3.733 C21.869,3.733 20.764,7.986 20.720,8.166 C20.537,8.912 19.868,9.437 19.100,9.437 C18.332,9.437 17.663,8.912 17.480,8.166 C17.364,7.725 16.158,3.733 10.784,3.733 C8.066,3.733 5.416,5.579 4.188,8.328 C2.879,11.259 3.465,14.430 5.798,17.028 C11.599,23.491 16.878,28.516 19.100,30.575 C21.322,28.516 26.601,23.491 32.402,17.028 C34.735,14.430 35.321,11.259 34.012,8.328 ZM31.059,13.661 C31.021,13.664 30.983,13.665 30.946,13.665 C30.075,13.665 29.343,12.990 29.284,12.109 C29.089,9.176 27.036,8.863 26.949,8.851 C26.036,8.727 25.397,7.887 25.522,6.975 C25.646,6.064 26.484,5.422 27.399,5.549 C29.071,5.777 32.313,7.395 32.612,11.888 C32.673,12.806 31.978,13.600 31.059,13.661 ZM28.928,14.385 C29.366,14.385 29.795,14.564 30.108,14.873 C30.417,15.180 30.596,15.610 30.596,16.052 C30.596,16.489 30.417,16.918 30.108,17.230 C29.795,17.538 29.366,17.718 28.928,17.718 C28.491,17.718 28.061,17.538 27.748,17.230 C27.440,16.918 27.261,16.489 27.261,16.052 C27.261,15.610 27.440,15.180 27.748,14.873 C28.061,14.564 28.491,14.385 28.928,14.385 Z"/>
</svg>