<svg 
 xmlns="http://www.w3.org/2000/svg"
 xmlns:xlink="http://www.w3.org/1999/xlink"
 width="0.597in" height="0.431in">
<path fill-rule="evenodd"  fill="rgb(80, 195, 175)"
 d="M40.951,27.734 L34.747,27.734 C34.056,27.734 33.497,27.173 33.497,26.483 C33.497,25.792 34.056,25.232 34.747,25.232 L39.188,25.232 C38.302,24.041 36.484,22.868 35.464,22.359 C34.847,22.051 34.595,21.301 34.902,20.683 C35.209,20.065 35.958,19.812 36.575,20.118 C37.151,20.404 42.200,23.008 42.200,26.483 C42.200,27.173 41.641,27.734 40.951,27.734 ZM30.382,20.487 C28.692,20.487 27.103,19.828 25.908,18.632 C25.420,18.143 25.420,17.351 25.908,16.862 C26.397,16.374 27.188,16.374 27.676,16.863 C28.398,17.587 29.360,17.985 30.382,17.985 C32.493,17.985 34.210,16.266 34.210,14.152 C34.210,12.040 32.493,10.321 30.382,10.321 C29.866,10.321 29.364,10.423 28.892,10.622 C28.257,10.891 27.523,10.593 27.255,9.956 C26.986,9.320 27.284,8.586 27.920,8.318 C28.701,7.987 29.530,7.819 30.382,7.819 C33.871,7.819 36.709,10.660 36.709,14.152 C36.709,17.645 33.871,20.487 30.382,20.487 ZM16.546,19.869 C11.239,19.869 6.921,15.547 6.921,10.235 C6.921,4.922 11.239,0.600 16.546,0.600 C21.854,0.600 26.172,4.922 26.172,10.235 C26.172,15.547 21.854,19.869 16.546,19.869 ZM16.546,3.935 C13.076,3.935 10.253,6.761 10.253,10.235 C10.253,13.708 13.076,16.534 16.546,16.534 C20.017,16.534 22.840,13.708 22.840,10.235 C22.840,6.761 20.017,3.935 16.546,3.935 ZM13.718,20.544 L16.546,22.940 L19.376,20.544 C19.813,20.173 20.411,20.053 20.956,20.228 C23.733,21.109 32.793,24.367 32.793,29.232 C32.793,30.153 32.047,30.900 31.127,30.900 L1.966,30.900 C1.046,30.900 0.300,30.153 0.300,29.232 C0.300,24.367 9.361,21.109 12.137,20.228 C12.682,20.053 13.280,20.173 13.718,20.544 ZM4.781,27.564 L28.312,27.564 C26.728,26.223 23.737,24.720 20.813,23.696 L17.622,26.397 C17.002,26.923 16.092,26.923 15.470,26.397 L12.281,23.696 C9.356,24.720 6.365,26.223 4.781,27.564 Z"/>
</svg>