<?xml version="1.0" encoding="utf-8"?><svg viewBox="0 0 12 13" xmlns="http://www.w3.org/2000/svg" xmlns:xlink="http://www.w3.org/1999/xlink"><style>:root>svg{display:none}:root>svg:target{display:block}</style><svg viewBox="0 0 9 13" id="item-1" xmlns="http://www.w3.org/2000/svg"><path fill-rule="evenodd" fill="#A89574" d="M7.608 6.645l-3.117 5.724-3.205-5.692a3.775 3.775 0 01-.377-.668l-.008-.015a3.844 3.844 0 116.707.651zM4.434 2.691a1.656 1.656 0 10-.001 3.313 1.656 1.656 0 00.001-3.313z"/></svg><svg viewBox="0 0 11 11" id="item-2" xmlns="http://www.w3.org/2000/svg"><path fill-rule="evenodd" fill="#A89574" d="M9 6a1 1 0 01-1-1V4c0-.405.243-.75.59-.907l-.717.062c-.08-.349-.262-.694-.669-.672-.81.045-3.959-.135-4.499.045-.409.137-.551.475-.635 1.137l-.135.012A.988.988 0 012 4v1a1 1 0 01-2 0V4c0-.055.023-.103.032-.156H.031l.001-.004a.97.97 0 01.087-.289c.424-1.331 2.394-2.289 2.957-2.43C3.68.971 4.471.952 5.375.938c.571-.01.46.136 1.517.099C7.949.999 10 2.969 10 2.969l-.805.07A.986.986 0 0110 4v1a1 1 0 01-1 1zM.704 9.06c.802-.963 2.146-2.502 3.108-3.21 1.329-.977 2.186-.094 5.342 3.181a.978.978 0 01.822.852l.054.056h-.042c.001.021.012.039.012.061a1 1 0 01-1 1H1a1 1 0 01-1-1c0-.447.299-.812.704-.94zm4.171.527a1.306 1.306 0 100-2.611 1.306 1.306 0 000 2.611z"/></svg><svg viewBox="0 0 12 8" id="item-3" xmlns="http://www.w3.org/2000/svg"><path fill-rule="evenodd" fill="#A89574" d="M8.725 3.805L11.978.856l.015 6.126-3.268-3.177zM.879.007h10.389L6.043 4.532.879.007zm-.891 7.086L.002.856l3.301 2.949-3.315 3.288zm6.014-1.424l1.983-1.283 3.282 3.602H.79l3.254-3.581 1.958 1.262z"/></svg></svg>