<?xml version="1.0" encoding="utf-8"?><svg viewBox="0 0 57.312 55.968" xmlns="http://www.w3.org/2000/svg" xmlns:xlink="http://www.w3.org/1999/xlink"><style>:root>svg{display:none}:root>svg:target{display:block}</style><svg viewBox="0 0 52.032 55.968" id="headset" xmlns="http://www.w3.org/2000/svg"><path fill-rule="evenodd" fill="#50C3AF" d="M38.076 30.999a1.668 1.668 0 01-1.665 1.656h-.013a1.668 1.668 0 01-1.653-1.682l.086-11.243a15.397 15.397 0 00-4.442-10.982A15.345 15.345 0 0019.496 4.13l-.121-.001c-8.466 0-15.387 6.867-15.452 15.364l-.086 11.243a1.666 1.666 0 01-1.665 1.655h-.013a1.666 1.666 0 01-1.652-1.68l.086-11.244C.672 9.091 9.175.7 19.521.794a18.647 18.647 0 0113.241 5.614 18.709 18.709 0 015.399 13.347l-.085 11.244zM13.58 19.784l.109.001a1.456 1.456 0 011.447 1.471l-.144 18.705a1.458 1.458 0 01-1.457 1.449h-.011c-3.686-.029-5.494-1.482-6.362-2.695-.984-1.376-1.002-2.76-1.001-2.914l.081-10.521c.014-1.901 1.567-5.496 7.338-5.496zm-1.49 18.589l.12-15.574c-2.799.426-3.037 2.147-3.055 2.53l-.08 10.495c.012.363.225 2.082 3.015 2.549zm13.285-18.499h.011c3.686.029 5.495 1.482 6.363 2.696.983 1.376 1.001 2.76 1 2.914l-.08 10.521c-.015 1.9-1.568 5.495-7.338 5.495h-.111a1.459 1.459 0 01-1.445-1.471l.143-18.706a1.46 1.46 0 011.457-1.449zm4.38 16.082l.08-10.495c-.012-.363-.224-2.082-3.015-2.55l-.12 15.574c2.8-.425 3.037-2.145 3.055-2.529z"/></svg><svg viewBox="0 0 52.032 46.656" id="heart" xmlns="http://www.w3.org/2000/svg"><path fill-rule="evenodd" fill="#50C3AF" d="M34.885 19.254C27.13 27.893 20.278 34.017 20.21 34.078a1.667 1.667 0 01-2.22 0c-.068-.061-6.92-6.185-14.675-14.824C.112 15.687-.7 11.094 1.142 6.969 2.925 2.979 6.709.4 10.784.4c4.128 0 6.778 1.835 8.316 3.793C20.638 2.235 23.289.4 27.417.4c4.074 0 7.858 2.579 9.641 6.569 1.842 4.125 1.03 8.718-2.173 12.285zm-.873-10.926c-1.227-2.749-3.878-4.595-6.595-4.595-5.548 0-6.653 4.253-6.697 4.433a1.669 1.669 0 01-3.24 0c-.116-.441-1.322-4.433-6.696-4.433-2.718 0-5.368 1.846-6.596 4.595-1.309 2.931-.723 6.102 1.61 8.7 5.801 6.463 11.08 11.488 13.302 13.547 2.222-2.059 7.501-7.084 13.302-13.547 2.333-2.598 2.919-5.769 1.61-8.7zm-2.953 5.333a1.667 1.667 0 01-1.775-1.552c-.195-2.933-2.248-3.246-2.335-3.258a1.665 1.665 0 01-1.427-1.876 1.664 1.664 0 011.877-1.426c1.672.228 4.914 1.846 5.213 6.339a1.667 1.667 0 01-1.553 1.773zm-2.131.724c.438 0 .867.179 1.18.488.309.307.488.737.488 1.179 0 .437-.179.866-.488 1.178a1.697 1.697 0 01-1.18.488 1.7 1.7 0 01-1.18-.488 1.692 1.692 0 01-.487-1.178c0-.442.179-.872.487-1.179a1.695 1.695 0 011.18-.488z"/></svg><svg viewBox="0 0 57.312 41.376" id="users" xmlns="http://www.w3.org/2000/svg"><path fill-rule="evenodd" fill="#50C3AF" d="M40.951 27.734h-6.204a1.25 1.25 0 010-2.502h4.441c-.886-1.191-2.704-2.364-3.724-2.873a1.251 1.251 0 011.111-2.241c.576.286 5.625 2.89 5.625 6.365a1.25 1.25 0 01-1.249 1.251zm-10.569-7.247a6.284 6.284 0 01-4.474-1.855 1.25 1.25 0 111.768-1.769 3.797 3.797 0 002.706 1.122 3.834 3.834 0 003.828-3.833 3.834 3.834 0 00-5.318-3.53 1.25 1.25 0 01-.972-2.304 6.277 6.277 0 012.462-.499c3.489 0 6.327 2.841 6.327 6.333 0 3.493-2.838 6.335-6.327 6.335zm-13.836-.618c-5.307 0-9.625-4.322-9.625-9.634C6.921 4.922 11.239.6 16.546.6c5.308 0 9.626 4.322 9.626 9.635 0 5.312-4.318 9.634-9.626 9.634zm0-15.934c-3.47 0-6.293 2.826-6.293 6.3 0 3.473 2.823 6.299 6.293 6.299 3.471 0 6.294-2.826 6.294-6.299 0-3.474-2.823-6.3-6.294-6.3zm-2.828 16.609l2.828 2.396 2.83-2.396a1.66 1.66 0 011.58-.316c2.777.881 11.837 4.139 11.837 9.004 0 .921-.746 1.668-1.666 1.668H1.966C1.046 30.9.3 30.153.3 29.232c0-4.865 9.061-8.123 11.837-9.004a1.662 1.662 0 011.581.316zm-8.937 7.02h23.531c-1.584-1.341-4.575-2.844-7.499-3.868l-3.191 2.701c-.62.526-1.53.526-2.152 0l-3.189-2.701c-2.925 1.024-5.916 2.527-7.5 3.868z"/></svg></svg>