<?xml version="1.0" standalone="no"?>
<!DOCTYPE svg PUBLIC "-//W3C//DTD SVG 1.1//EN" "http://www.w3.org/Graphics/SVG/1.1/DTD/svg11.dtd" >
<svg xmlns="http://www.w3.org/2000/svg" xmlns:xlink="http://www.w3.org/1999/xlink" version="1.1">
<metadata>
Created by FontForge 20170731 at Fri Sep 22 00:13:42 2000
 By Aleksey,,,
Copyright (c) 1995 Adobe Systems Incorporated.  All Rights Reserved.Optima is a trademark of Linotype-Hell AG and/or its subsidiaries.
</metadata>
<defs>
<font id="OptimaLT-ExtraBlack" horiz-adv-x="593" >
  <font-face 
    font-family="Optima LT ExtraBlack"
    font-weight="400"
    font-stretch="normal"
    units-per-em="1000"
    panose-1="2 11 4 0 0 0 0 0 0 0"
    ascent="800"
    descent="-200"
    x-height="524"
    cap-height="716"
    bbox="-164 -265 1144 961"
    underline-thickness="50"
    underline-position="-175"
    unicode-range="U+0020-2122"
  />
<missing-glyph horiz-adv-x="500" 
d="M63 0v748h375v-748h-375zM125 63h250v623h-250v-623z" />
    <glyph glyph-name=".notdef" horiz-adv-x="500" 
d="M63 0v748h375v-748h-375zM125 63h250v623h-250v-623z" />
    <glyph glyph-name=".null" horiz-adv-x="0" 
 />
    <glyph glyph-name="nonmarkingreturn" horiz-adv-x="296" 
 />
    <glyph glyph-name="space" unicode=" " horiz-adv-x="296" 
 />
    <glyph glyph-name="exclam" unicode="!" horiz-adv-x="333" 
d="M191 247h-52l-56 242q-21 91 -21 125q0 112 105 112t105 -106q0 -38 -30 -162zM271 95q0 -43 -30.5 -73.5t-73.5 -30.5t-73.5 30.5t-30.5 73.5q0 42 30.5 73t73.5 31t73.5 -31t30.5 -73z" />
    <glyph glyph-name="quotedbl" unicode="&#x22;" horiz-adv-x="519" 
d="M178 383h-60l-53 333h166zM401 383h-60l-53 333h166z" />
    <glyph glyph-name="numbersign" unicode="#" 
d="M472 420l-27 -139h100l-16 -89h-100l-37 -192h-105l37 192h-114l-37 -192h-105l37 192h-100l16 89h100l27 139h-100l16 89h100l36 188h105l-36 -188h114l36 188h105l-36 -188h100l-16 -89h-100zM226 281h114l27 139h-114z" />
    <glyph glyph-name="dollar" unicode="$" 
d="M260 69v178l-69 20q-147 43 -147 208q0 100 61 160q56 56 157 69q0 48 -3 74q20 -3 37 -3t33 3q-4 -48 -4 -73q58 -2 101 -14q33 -10 93 -38q-6 -23 -26 -137h-39q-13 48 -31 71q-33 40 -98 41v-180q112 -28 156 -60q73 -53 73 -159q0 -214 -231 -238q0 -33 4 -101
q-33 3 -34 3q-18 0 -36 -3q3 99 3 100q-109 5 -213 58q9 36 25 141h39q12 -48 32 -70q36 -41 117 -50zM262 465v162q-79 -21 -79 -82q0 -57 79 -80zM323 231v-162q43 12 59 23q25 19 25 57q0 37 -25 56q-15 12 -59 26z" />
    <glyph glyph-name="percent" unicode="%" horiz-adv-x="963" 
d="M441 536q0 -77 -53 -124.5t-140 -47.5q-82 0 -133 44q-54 47 -54 128q0 73 50.5 122.5t139.5 49.5q80 0 134 -45q56 -48 56 -127zM206 541q0 -59 6 -82q9 -37 39 -37t39 36q6 21 6 83q0 109 -45 109t-45 -109zM667 168q0 -59 6 -82q9 -37 39 -37t39 36q6 21 6 83
q0 109 -45 109t-45 -109zM902 163q0 -77 -53 -124.5t-140 -47.5q-82 0 -133 44q-54 47 -54 128q0 73 50.5 122.5t139.5 49.5q80 0 134 -45q56 -48 56 -127zM705 730l-366 -760l-83 -1l370 761h79z" />
    <glyph glyph-name="ampersand" unicode="&#x26;" horiz-adv-x="815" 
d="M373 98q34 0 65 21q-118 133 -179 221q-42 -34 -42 -79q0 -59 49 -111t107 -52zM336 576q0 -40 57 -109q66 44 66 97q0 31 -17 50.5t-48 19.5q-25 0 -41.5 -16t-16.5 -42zM688 418h30q21 -49 49 -90q-68 -91 -132 -153l33 -38q22 -25 65 -70q32 -33 48 -44v-23
q-94 9 -119 9q-65 0 -119 -9q-18 20 -55 61q-116 -73 -233 -73q-94 0 -156 49q-67 53 -67 143q0 77 59 135q40 40 126 84q-55 70 -55 141q0 78 63 124q58 42 146 42q78 0 130 -31q66 -38 66 -115q0 -95 -133 -146q49 -67 147 -179q84 96 107 183z" />
    <glyph glyph-name="quotesingle" unicode="'" horiz-adv-x="296" 
d="M178 383h-60l-53 333h166z" />
    <glyph glyph-name="parenleft" unicode="(" horiz-adv-x="370" 
d="M304 729l44 -34q-69 -89 -95 -187q-22 -85 -22 -221q0 -101 13 -172q23 -125 104 -223l-45 -33q-113 83 -180 200q-62 109 -62 225q0 117 48 216q60 123 195 229z" />
    <glyph glyph-name="parenright" unicode=")" horiz-adv-x="370" 
d="M67 -141l-45 33q66 79 91.5 168.5t25.5 257.5q0 129 -33 227q-24 72 -84 150l44 34q121 -97 175 -190q68 -118 68 -253t-78 -256q-62 -96 -164 -171z" />
    <glyph glyph-name="asterisk" unicode="*" horiz-adv-x="407" 
d="M289 442l-54 44q7 -64 21 -131q-36 2 -53 2q-19 0 -55 -2q17 68 22 128q-35 -26 -101 -82q-24 50 -59 92l39 12q26 8 91 34q-34 14 -126 47q32 45 51 94q35 -29 104 -84q-6 77 -20 130q51 -3 54 -3q27 0 52 3q-14 -56 -22 -130q54 41 103 82q22 -46 54 -92
q-73 -21 -126 -46q21 -9 125 -46q-33 -52 -51 -93q-18 16 -49 41z" />
    <glyph glyph-name="plus" unicode="+" horiz-adv-x="667" 
d="M279 580h109v-215h215v-109h-215v-215h-109v215h-215v109h215v215z" />
    <glyph glyph-name="comma" unicode="," horiz-adv-x="296" 
d="M41 -181l-38 18l69 261q27 104 103 104q36 0 61.5 -23t25.5 -60q0 -31 -21 -64q-12 -20 -50 -63z" />
    <glyph glyph-name="hyphenminus" unicode="-" horiz-adv-x="426" 
d="M46 348q81 -6 161 -6q87 0 172 6q-6 -66 -6 -74q0 -26 6 -70q-66 6 -167 6q-82 0 -166 -6q0 5 3 35q3 24 3 37q0 3 -6 72z" />
    <glyph glyph-name="period" unicode="." horiz-adv-x="296" 
d="M252 95q0 -43 -30.5 -73.5t-73.5 -30.5t-73.5 30.5t-30.5 73.5q0 42 30.5 73t73.5 31t73.5 -31t30.5 -73z" />
    <glyph glyph-name="slash" unicode="/" horiz-adv-x="407" 
d="M292 751h114l-291 -785h-114z" />
    <glyph glyph-name="zero" unicode="0" 
d="M344 349q0 189 -6 231q-8 56 -41 56t-41 -55q-7 -48 -7 -232q0 -190 6 -232q8 -54 42 -54t41 54q6 42 6 232zM34 349q0 146 56 242q69 117 207 117q134 0 202 -109q60 -95 60 -249q0 -148 -56 -243q-69 -116 -206 -116t-206 113q-57 95 -57 245z" />
    <glyph glyph-name="one" unicode="1" 
d="M406 717l27 -17q-9 -187 -9 -331q0 -162 8 -369q-55 9 -113 9q-43 0 -106 -9q9 115 9 356q0 83 -3 165q-38 -18 -113 -60q-19 26 -61 77q36 12 103 42q161 71 258 137z" />
    <glyph glyph-name="two" unicode="2" 
d="M536 519q0 -71 -43 -129q-25 -34 -86 -84q-36 -30 -125 -89l-69 -46q198 0 326 11q-7 -43 -7 -84q0 -47 7 -98q-78 9 -244 9q-129 0 -260 -9q5 27 4 51q-1 21 -4 50q52 40 120 108q76 74 105 120q54 84 54 193q0 110 -73 110q-85 0 -91 -167l-17 -7q-43 57 -117 111
q54 79 113 109q56 29 148 29q113 0 186 -53t73 -135z" />
    <glyph glyph-name="three" unicode="3" 
d="M116 205l20 -4q0 -53 22 -93q27 -48 76 -48q95 0 95 139q0 128 -84 128q-16 0 -46 -4q4 28 4 40q0 11 -2 31l36 -3q82 0 82 120q0 126 -78 126q-36 0 -59 -36q-17 -27 -21 -62l-6 -49l-15 -2q-27 41 -104 103q38 49 74 72q61 39 152 39q97 0 168 -38q87 -48 87 -138
q0 -62 -46 -106q-39 -37 -97 -49q68 -9 114 -49q51 -45 51 -114q0 -107 -93 -166q-79 -50 -192 -50q-75 0 -125 20q-55 21 -111 76q26 28 52.5 57.5t45.5 59.5z" />
    <glyph glyph-name="four" unicode="4" 
d="M471 291l49 1q1 0 49 3q-6 -52 -6 -76q0 -35 6 -75q-31 2 -41 2l-57 -1q0 -89 4 -145q-41 9 -103 9q-41 0 -100 -9q5 110 5 144q-15 1 -44 1q-115 0 -210 -4q6 42 6 77q0 19 -6 65q54 65 141 202l65 102q42 66 67 110q54 -9 90 -9q26 0 91 9q-7 -251 -7 -231zM280 286
v239l-158 -239h158z" />
    <glyph glyph-name="five" unicode="5" 
d="M69 187h24q12 -57 46 -92t85 -35q55 0 84 45q24 38 24 96q0 139 -104 139q-60 0 -102 -56l-46 26q6 67 6 178q0 126 -10 199l22 10q52 -9 157 -9q102 0 262 9q-7 -36 -7 -81q0 -47 7 -96q-64 7 -271 7q-51 0 -74 -1q-3 -66 -9 -132q66 37 144 37q98 0 164 -47
q75 -54 75 -150q0 -126 -100 -190q-85 -54 -219 -54q-103 0 -211 56q33 59 53 141z" />
    <glyph glyph-name="six" unicode="6" 
d="M494 637l-11 -11q-44 6 -66 6q-82 0 -132 -79q-38 -60 -38 -161q57 33 113 33q90 0 146.5 -55.5t56.5 -150.5q0 -96 -69 -160q-72 -68 -185 -68q-135 0 -207 99q-63 88 -63 229q0 150 66 246q97 142 295 142q21 0 65 -4q10 -36 29 -66zM356 210q0 82 -12 111.5t-44 29.5
q-36 0 -47 -40q-7 -23 -7 -76q0 -83 4 -106q10 -72 52 -72q36 0 47 45q7 27 7 108z" />
    <glyph glyph-name="seven" unicode="7" 
d="M572 697l22 -29l-16 -26q-82 -133 -195 -369q-79 -165 -117 -273q-42 9 -83 9q-28 0 -75 -9l-11 13q32 45 94 137q75 115 172 282l49 84q-12 1 -37 1h-139q-105 0 -176 -11q7 39 7 98q0 39 -7 93q72 -9 242 -9q154 0 270 9z" />
    <glyph glyph-name="eight" unicode="8" 
d="M555 199q0 -104 -79 -159q-69 -49 -179 -49q-106 0 -177 48q-82 55 -82 155q0 141 144 191q-65 19 -95 49q-37 36 -37 98q0 79 71 126q67 45 172 45q109 0 176 -41q75 -46 75 -130q0 -112 -131 -148q62 -23 91 -50q51 -49 51 -135zM297 58q33 0 43 40q7 27 7 99
q0 67 -4 91q-10 60 -46 60q-34 0 -45 -47q-6 -27 -6 -93q0 -69 6 -99q11 -51 45 -51zM251 528q0 -74 14 -100q11 -21 37 -21q27 0 36 40q5 24 5 79t-6 77q-9 36 -39 36q-31 0 -41 -38q-6 -22 -6 -73z" />
    <glyph glyph-name="nine" unicode="9" 
d="M292 343q34 0 46 41q9 31 9 112q0 69 -7 96q-11 46 -47 46q-39 0 -50 -40q-7 -26 -7 -109q0 -73 8 -102q12 -44 48 -44zM95 4l-35 71l16 13q46 -23 99 -23q163 0 170 238q-46 -35 -121 -35q-74 0 -128 47q-65 57 -65 162q0 108 79 170q73 56 183 56q138 0 203 -101
q56 -87 56 -227q0 -193 -94.5 -288.5t-238.5 -95.5q-61 0 -124 13z" />
    <glyph glyph-name="colon" unicode=":" horiz-adv-x="315" 
d="M262 95q0 -43 -30.5 -73.5t-73.5 -30.5t-73.5 30.5t-30.5 73.5q0 42 30.5 73t73.5 31t73.5 -31t30.5 -73zM262 420q0 -43 -30.5 -73.5t-73.5 -30.5t-73.5 30.5t-30.5 73.5q0 42 30.5 73t73.5 31t73.5 -31t30.5 -73z" />
    <glyph glyph-name="semicolon" unicode=";" horiz-adv-x="315" 
d="M275 420q0 -43 -30.5 -73.5t-73.5 -30.5t-73.5 30.5t-30.5 73.5q0 42 30.5 73t73.5 31t73.5 -31t30.5 -73zM41 -181l-38 18l69 261q27 104 103 104q36 0 61.5 -23t25.5 -60q0 -31 -21 -64q-12 -20 -50 -63z" />
    <glyph glyph-name="less" unicode="&#x3c;" horiz-adv-x="667" 
d="M621 35l-574 224v106l574 223v-116l-436 -161l436 -160v-116z" />
    <glyph glyph-name="equal" unicode="=" horiz-adv-x="667" 
d="M64 273h539v-109h-539v109zM64 458h539v-109h-539v109z" />
    <glyph glyph-name="greater" unicode="&#x3e;" horiz-adv-x="667" 
d="M47 588l574 -224v-106l-574 -223v116l436 161l-436 160v116z" />
    <glyph glyph-name="question" unicode="?" horiz-adv-x="426" 
d="M329 322l12 -8q-12 -28 -22 -63q-35 -7 -69 -7q-91 0 -138 47q-37 36 -37 86t28 87q10 13 68 68q28 26 30 29q14 17 14 37t-16 33.5t-39 13.5q-68 0 -97 -62h-24q-2 62 -9 103q112 39 169 39q97 0 155 -51q53 -45 53 -111q0 -44 -19 -73q-16 -25 -69 -67
q-28 -21 -55 -42.5t-27 -39.5q0 -38 41 -38q27 0 51 19zM315 95q0 -43 -30.5 -73.5t-73.5 -30.5t-73.5 30.5t-30.5 73.5q0 42 30.5 73t73.5 31t73.5 -31t30.5 -73z" />
    <glyph glyph-name="at" unicode="@" horiz-adv-x="800" 
d="M660 114l29 -42q-122 -84 -299 -84q-145 0 -245 84q-113 93 -113 255q0 165 117 274q115 106 284 106q141 0 234 -74q101 -81 101 -218q0 -115 -57 -191t-149 -76q-77 0 -96 54q-39 -54 -113 -54q-136 0 -136 135q0 91 59 164q63 78 154 78q66 0 88 -46l11 36h97
q-71 -240 -71 -267q0 -39 33 -39q51 0 87.5 57t36.5 147q0 120 -81 183q-74 58 -198 58q-131 0 -218 -100q-83 -95 -83 -228q0 -127 77.5 -206t203.5 -79q152 0 247 73zM332 274q0 -65 44 -65q50 0 81 80q25 64 25 122q0 53 -41 53q-47 0 -81 -75q-28 -63 -28 -115z" />
    <glyph glyph-name="A" unicode="A" horiz-adv-x="722" 
d="M175 143q-14 -36 -45 -143q-41 9 -68 9t-67 -9l62 133q33 71 145 346q41 101 92 241q41 -9 70 -9q31 0 71 9q53 -169 143 -393q41 -103 138 -327q-44 9 -131 9q-52 0 -129 -9q-20 76 -44 143q-22 0 -66 1h-66h-52q-35 -1 -53 -1zM380 233l-86 233l-90 -233q30 -1 88 -1
q59 0 88 1z" />
    <glyph glyph-name="B" unicode="B" horiz-adv-x="722" 
d="M451 384v-4q226 -21 226 -185q0 -98 -88 -151q-74 -44 -182 -44q-29 0 -106.5 4.5t-117.5 4.5q-31 0 -112 -9q10 155 10 338q0 215 -1 238l-6 140q71 -9 140 -9q32 0 93 4.5t91 4.5q105 0 171 -31q93 -43 93 -141q0 -53 -38 -94q-54 -59 -173 -66zM345 335h-42l1 -253
q75 0 98 17q38 26 38 115q0 121 -95 121zM303 412h37q96 0 96 110q0 55 -20 81q-24 32 -83 32q-19 0 -29 -1q-1 -35 -1 -222z" />
    <glyph glyph-name="C" unicode="C" horiz-adv-x="722" 
d="M658 526h-40q-12 52 -53 80t-95 28q-103 0 -153 -83q-41 -67 -42 -177q-3 -287 192 -287q61 0 113 29q30 17 77 58l31 -17q-20 -66 -32 -118q-133 -48 -233 -48q-165 0 -273 96q-112 101 -112 264q0 174 120 277q113 97 290 97q115 0 240 -49q-6 -22 -16 -67
q-6 -28 -14 -83z" />
    <glyph glyph-name="D" unicode="D" horiz-adv-x="815" 
d="M779 367q0 -110 -47.5 -197t-127.5 -126q-89 -44 -186 -44q-34 0 -102.5 4.5t-103.5 4.5q-36 0 -142 -9q11 168 11 311q0 192 -9 405q72 -9 120 -9q33 0 99.5 4.5t99.5 4.5q149 0 245 -61q70 -45 108 -125q35 -75 35 -163zM537 366q0 164 -55 224q-39 43 -127 43
q-22 0 -48 -3q-4 -76 -4 -167q0 -52 1 -189t1 -190q20 -1 61 -1q98 0 136 70q35 63 35 213z" />
    <glyph glyph-name="E" unicode="E" horiz-adv-x="611" 
d="M307 330v-229h70q30 0 184 7q-5 -47 -5 -57q0 -24 5 -51q-104 9 -242 9q-140 0 -244 -9q8 92 8 349q0 211 -10 367q124 -9 208 -9q200 0 280 9q-5 -45 -5 -53t5 -56q-117 7 -149 7h-105v-196q84 0 245 10q-5 -30 -5 -53q0 -11 5 -54q-121 9 -245 9z" />
    <glyph glyph-name="F" unicode="F" 
d="M543 321l-112 8q-56 4 -121 4q0 -227 11 -333q-61 9 -123 9q-48 0 -118 -9q10 178 10 425q0 113 -11 291q112 -9 245 -9q120 0 228 9q0 -7 -2.5 -25.5t-2.5 -29.5q0 -24 5 -54q-157 9 -239 9q-3 -66 -3 -198q166 0 233 10q-5 -35 -5 -54q0 -18 5 -53z" />
    <glyph glyph-name="G" unicode="G" horiz-adv-x="796" 
d="M692 516h-37q-38 120 -175 120q-112 0 -165 -91q-42 -72 -42 -193q0 -276 185 -276q25 0 57 9q0 -1 -6 236q72 -9 114 -9q74 0 114 9q-6 -132 -6 -224q0 -16 3 -61q-163 -46 -282 -46q-177 0 -292 94q-125 101 -125 273q0 165 119 268q116 100 300 100q147 0 284 -59
q-31 -76 -46 -150z" />
    <glyph glyph-name="H" unicode="H" horiz-adv-x="833" 
d="M82 330q0 18 -1 111.5t-1 109.5q0 81 -9 165q81 -9 123 -9q60 0 123 9q-11 -115 -11 -284q60 -2 109 -2q17 0 55 1t57 1q0 173 -11 284q81 -9 123 -9q60 0 123 9q-11 -114 -11 -286q0 -188 10 -430q-64 9 -131 9q-47 0 -115 -9q12 97 12 332q-18 0 -55 1t-56 1
q-42 0 -110 -2q0 -234 10 -332q-53 9 -125 9q-59 0 -120 -9l4 50q7 88 7 280z" />
    <glyph glyph-name="I" unicode="I" horiz-adv-x="389" 
d="M306 432v-100q0 -228 10 -332q-55 9 -125 9q-45 0 -119 -9q10 157 10 330q0 27 -1 110.5t-1 110.5q0 77 -8 165q79 -9 122 -9q60 0 123 9q-11 -148 -11 -284z" />
    <glyph glyph-name="J" unicode="J" horiz-adv-x="389" 
d="M322 263l1 -100q1 -115 -17 -165q-27 -78 -116 -119q-71 -33 -213 -33q4 26 4 40q0 11 -4 35q54 1 76 15q38 23 42 95q5 89 5 204q0 257 -14 481q76 -9 126 -9q59 0 120 9q-12 -258 -10 -453z" />
    <glyph glyph-name="K" unicode="K" horiz-adv-x="722" 
d="M395 134l-97 175q0 -143 8 -309q-59 9 -117 9q-31 0 -121 -9q11 104 11 373q0 236 -10 343q76 -9 126 -9q57 0 114 9q-11 -162 -11 -308l32 36q111 125 222 272q41 -9 83 -9q38 0 69 9v-14q-24 -22 -71 -68q-88 -92 -170 -182q49 -93 148 -256q80 -131 103 -164l13 -19
v-13q-52 9 -122 9q-80 0 -140 -9q-23 50 -70 134z" />
    <glyph glyph-name="L" unicode="L" horiz-adv-x="574" 
d="M308 101q165 0 241 12q-5 -37 -5 -58q0 -27 5 -55q-108 9 -211 9q-142 0 -269 -9q15 78 15 237q0 143 -5 297q-1 65 -9 182q63 -9 128 -9q67 0 118 9q-10 -108 -10 -388q0 -18 1 -114.5t1 -112.5z" />
    <glyph glyph-name="M" unicode="M" horiz-adv-x="981" 
d="M661 444l-24 -53q-28 -66 -86 -198q-35 -80 -75 -190q-40 5 -49 5q-5 0 -50 -5q-32 89 -89 218q-47 107 -94 215q-15 -79 -32 -221q-18 -149 -20 -215q-30 9 -62 9q-26 0 -66 -9q23 86 64 305q37 198 50 371l3 40q39 -9 92 -9q52 0 93 9q58 -169 181 -427q45 107 91 214
q53 127 84 213q37 -9 89 -9q59 0 94 9l12 -129q13 -138 36 -312q28 -201 47 -275q-76 9 -122 9q-51 0 -119 -9q-8 120 -23 258q-10 99 -25 186z" />
    <glyph glyph-name="N" unicode="N" horiz-adv-x="796" 
d="M318 277l-55 63q-28 30 -85 91v-104q0 -98 14 -327q-32 9 -60 9q-23 0 -68 -9q19 197 19 376q0 207 -8 340q50 -9 85 -9q32 0 77 9q103 -133 237 -275q45 -50 143 -156q0 34 -2 88q-2 72 -2 87q-3 138 -11 256q41 -9 68 -9q30 0 60 9q-4 -50 -10 -152q-8 -213 -8 -404
q0 -54 4 -160q-38 9 -82 9q-30 0 -77 -9q-42 52 -239 277z" />
    <glyph glyph-name="O" unicode="O" horiz-adv-x="889" 
d="M442 725q179 0 291 -93q119 -99 119 -270q0 -180 -120 -279q-111 -92 -294 -92q-171 0 -283 97q-118 101 -118 270q0 174 117 273q110 94 288 94zM450 73q162 0 162 287q0 283 -169 283q-94 0 -135 -93q-31 -68 -31 -176q0 -129 26 -197q40 -104 147 -104z" />
    <glyph glyph-name="P" unicode="P" horiz-adv-x="704" 
d="M678 519q0 -114 -84 -169q-71 -46 -192 -46q-46 0 -99 5q0 -260 10 -309q-83 9 -112 9q-54 0 -135 -9q14 151 14 335q0 234 -11 381q57 -9 134 -9q35 0 104.5 4.5t101.5 4.5q114 0 183 -40q86 -50 86 -157zM447 513q0 71 -33 99q-25 22 -76 22q-12 0 -34 -2
q-1 -101 -1 -246q12 -2 38 -2q106 0 106 129z" />
    <glyph glyph-name="Q" unicode="Q" horiz-adv-x="889" 
d="M608 14l107 -66q41 -22 119 -65v-9q-71 -32 -150 -78q-44 33 -131 98q-72 53 -142 98q-48 0 -110 18q-70 21 -118 55q-146 103 -146 293q0 174 117 273q110 94 288 94q179 0 291 -93q119 -99 119 -270q0 -126 -63.5 -217.5t-180.5 -130.5zM612 360q0 283 -168 283
q-94 0 -136 -93q-31 -68 -31 -176q0 -129 26 -196q40 -104 147 -104q162 0 162 286z" />
    <glyph glyph-name="R" unicode="R" horiz-adv-x="741" 
d="M523 349l22 -37q117 -197 198 -312q-83 9 -140 9q-48 0 -127 -9q-53 103 -169 309h-3q0 -165 7 -309q-68 9 -118 9q-42 0 -123 -9q12 136 12 264q0 198 -10 452q59 -9 136 -9q32 0 95.5 4.5t95.5 4.5q283 0 283 -192q0 -141 -159 -175zM304 632v-244q13 -2 37 -2
q111 0 111 127q0 121 -116 121q-10 0 -32 -2z" />
    <glyph glyph-name="S" unicode="S" 
d="M76 197h41q10 -51 54.5 -82t103.5 -31q41 0 68 16q33 19 33 56q0 35 -36 60q-32 23 -136 66q-151 63 -151 209q0 114 78 177q72 58 188 58q96 0 211 -43q-33 -73 -39 -149h-40q-9 46 -42 75q-36 32 -87 32q-39 0 -68 -16q-36 -21 -36 -56q0 -34 37 -57q13 -8 92 -43
l77 -34q125 -55 125 -199q0 -120 -79 -185q-74 -60 -198 -60q-97 0 -220 43q19 89 24 163z" />
    <glyph glyph-name="T" unicode="T" horiz-adv-x="611" 
d="M191 612q-99 0 -186 -10q6 27 6 57q0 13 -6 57q99 -9 299 -9q196 0 301 9q-6 -48 -6 -61q0 -27 6 -53q-102 10 -186 10q-3 -88 -3 -215q0 -251 9 -397q-89 9 -125 9q-50 0 -116 -9q11 90 11 382q0 111 -4 230z" />
    <glyph glyph-name="U" unicode="U" horiz-adv-x="796" 
d="M77 302q0 296 -11 414q66 -9 125 -9q71 0 124 9q-14 -85 -14 -345q0 -138 19 -184q31 -75 134 -75q87 0 122 66q19 37 21 115q1 47 1 144q0 143 -12 279q59 -9 78 -9q29 0 70 9q-14 -191 -14 -369q0 -99 -11 -147q-14 -62 -55 -110q-85 -99 -255 -99q-164 0 -243 75
t-79 236z" />
    <glyph glyph-name="V" unicode="V" horiz-adv-x="704" 
d="M269 716q11 -44 54 -174q55 -173 99 -279q47 125 82 237q24 72 66 216q31 -9 69 -9q25 0 70 9q-41 -92 -119 -277q-55 -137 -168 -439q-36 9 -72 9q-41 0 -69 -9q-29 97 -137.5 381.5t-135.5 334.5q83 -9 139 -9q62 0 122 9z" />
    <glyph glyph-name="W" unicode="W" horiz-adv-x="1000" 
d="M370 291l11 32q66 191 119 393q35 -9 69 -9q41 0 69 9q46 -227 122 -427l10 32q14 45 64 229q13 56 40 166q39 -9 67 -9q33 0 64 9q-46 -108 -129 -365q-57 -176 -105 -351q-49 9 -73 9q-23 0 -70 -9q-3 10 -86 263q-13 43 -41 129q-13 -36 -38 -108t-49 -143
q-33 -98 -41 -141q-41 9 -72 9q-36 0 -76 -9q-18 80 -61 224q-87 291 -157 492q63 -9 127 -9q40 0 128 9q34 -188 108 -425z" />
    <glyph glyph-name="X" unicode="X" horiz-adv-x="648" 
d="M273 226l-26 -44q-63 -106 -105 -182q-37 9 -74 9q-31 0 -69 -9q144 192 227 320q-79 142 -221 396q71 -9 141 -9q51 0 123 9q38 -93 103 -210q44 70 122 210q47 -9 72 -9q23 0 72 9q-74 -90 -219 -302q93 -198 228 -414q-74 9 -132 9q-66 0 -131 -9q-60 131 -111 226z
" />
    <glyph glyph-name="Y" unicode="Y" horiz-adv-x="685" 
d="M456 317q-2 -56 -2 -84q0 -122 13 -233q-54 9 -120 9q-48 0 -122 -9q10 137 10 289q0 9 -22 52q-34 65 -105 198l-101 177q63 -9 142 -9q82 0 126 9q25 -70 136 -292q80 162 127 292q50 -9 68 -9q38 0 70 9q-75 -120 -206 -372z" />
    <glyph glyph-name="Z" unicode="Z" horiz-adv-x="667" 
d="M646 716v-43q-102 -144 -239 -392l-97 -176q184 0 339 12q-6 -42 -6 -60q0 -27 6 -57q-131 9 -308 9q-205 0 -327 -9v46q116 172 327 565q-168 0 -299 -11q6 21 6 54q0 31 -6 62q122 -9 320 -9q142 0 284 9z" />
    <glyph glyph-name="bracketleft" unicode="[" horiz-adv-x="370" 
d="M74 274q0 319 -9 442q100 -5 141 -5q23 0 140 5q-3 -21 -3 -39l3 -42q-35 4 -113 4q-7 -171 -7 -330q0 -276 6 -350q40 1 113 4q-3 -18 -3 -41q0 -16 3 -40q-49 5 -134 5q-90 0 -147 -5q10 146 10 392z" />
    <glyph glyph-name="backslash" unicode="\" horiz-adv-x="407" 
d="M1 751h114l291 -785h-114z" />
    <glyph glyph-name="bracketright" unicode="]" horiz-adv-x="370" 
d="M292 324q0 -319 9 -442q-100 5 -141 5q-22 0 -140 -5q3 21 3 39l-3 42q35 -4 113 -4q7 171 7 330q0 276 -6 350q-39 -1 -113 -4q3 18 3 41q0 16 -3 40q49 -5 134 -5q90 0 147 5q-10 -146 -10 -392z" />
    <glyph glyph-name="asciicircum" unicode="^" horiz-adv-x="667" 
d="M99 288l182 409h106l182 -409h-115l-120 281l-120 -281h-115z" />
    <glyph glyph-name="underscore" unicode="_" horiz-adv-x="500" 
d="M0 -125v50h500v-50h-500z" />
    <glyph glyph-name="grave" unicode="`" horiz-adv-x="278" 
d="M223 588h-67l-122 70q-62 36 -62 72q0 55 62 55q43 0 78 -47z" />
    <glyph glyph-name="a" unicode="a" horiz-adv-x="574" 
d="M23 133q0 73 52 111q37 28 130 53q72 19 90.5 30t18.5 38q0 68 -87 68q-80 0 -110 -54l-29 2l-20 89q108 57 219 57q108 0 167 -47q53 -43 53 -112q0 -27 -2.5 -99.5t-2.5 -96.5q0 -45 4 -61q7 -25 31 -25q15 0 37 11l-3 -30l3 -27q-62 -47 -136 -47q-72 0 -115 55
q-58 -55 -140 -55q-73 0 -114 34q-46 36 -46 106zM221 155q0 -65 42 -65q48 0 48 46v128q-57 -21 -73.5 -41.5t-16.5 -67.5z" />
    <glyph glyph-name="b" unicode="b" horiz-adv-x="648" 
d="M618 278q0 -123 -67 -202q-71 -83 -192 -83q-62 0 -102 19q-36 18 -68 58q-36 -32 -71 -70q-5 0 -17 2t-19 2q-10 0 -32 -4q11 235 11 385q0 133 -10 375q46 -9 109 -9q55 0 118 9q-8 -46 -12 -281q66 48 129 48q94 0 158.5 -69t64.5 -180zM261 246q0 -96 11 -134
q14 -53 55 -53q45 0 60 70q9 40 9 133q0 103 -19 143q-14 31 -46 31q-41 0 -57 -52q-13 -43 -13 -138z" />
    <glyph glyph-name="c" unicode="c" horiz-adv-x="519" 
d="M469 360h-37q-16 88 -79 88q-94 0 -94 -172q0 -181 111 -181q55 0 99 53l31 -20q-21 -47 -36 -96q-18 -13 -69 -24.5t-94 -11.5q-127 0 -202 78q-70 72 -70 185q0 127 86 200q79 68 203 68q83 0 182 -47q-11 -36 -31 -120z" />
    <glyph glyph-name="d" unicode="d" horiz-adv-x="648" 
d="M29 252q0 142 80 217q62 58 140 58q72 0 132 -51q0 118 -7 284q48 -9 107 -9q60 0 115 9q-9 -122 -9 -390q0 -247 10 -370q-61 9 -100 9q-41 0 -102 -9q3 30 3 61q-31 -37 -63 -52t-82 -15q-110 0 -172 84q-52 72 -52 174zM318 81q46 0 60 72q7 33 7 112q0 94 -14.5 133
t-50.5 39q-46 0 -61 -73q-8 -36 -8 -112q0 -171 67 -171z" />
    <glyph glyph-name="e" unicode="e" horiz-adv-x="574" 
d="M241 318h113q1 67 -6 95q-11 46 -48 46q-39 0 -52 -48q-7 -27 -7 -93zM502 151l25 -27q-23 -42 -36 -88q-85 -40 -179 -40q-156 0 -230 97q-53 70 -53 171q0 115 65 186q71 77 202 77q133 0 203 -94q42 -56 46 -185q-78 3 -88 3q-108 0 -216 -3q0 -65 30 -107
q33 -48 96 -48q34 0 72.5 16.5t62.5 41.5z" />
    <glyph glyph-name="f" unicode="f" horiz-adv-x="352" 
d="M368 626l-14 -6q-64 35 -111 35q-52 0 -52 -37q0 -35 74 -111q67 0 102 4q-5 -18 -5 -34q0 -11 5 -44q-75 5 -89 5q0 -204 8 -438q-58 9 -114 9q-27 0 -108 -9q7 96 7 291q0 98 -2 147q-34 0 -77 -5q5 23 5 42q0 21 -5 36q9 0 39 -2q23 -2 38 -2q10 73 24 108
q18 47 62 89q71 69 167 69q18 0 65 -5q-16 -60 -19 -142z" />
    <glyph glyph-name="g" unicode="g" 
d="M35 363q0 95 98 137q62 27 146 27q40 0 95 -9l74 -12q31 0 141 5q-6 -22 -6 -39q0 -15 5 -40q-66 6 -86 6q28 -40 28 -83q0 -83 -76 -126q-62 -35 -152 -35q-24 0 -44.5 2.5t-19.5 2.5q-11 0 -20.5 -12t-9.5 -23q0 -23 24 -29q20 -5 90 -5h63q80 0 122 -18
q76 -33 76 -128q0 -120 -101 -189q-89 -60 -216 -60q-81 0 -146 23q-103 36 -103 119q0 45 38 72q21 16 75 34q-83 32 -83 106q0 48 42 83q32 27 80 39q-8 2 -25 7q-109 37 -109 145zM158 -101q0 -90 129 -90q52 0 89 20q43 24 43 68q0 47 -35 61q-25 10 -100 10h-87
q-39 -33 -39 -69zM291 252q31 0 42 33q7 23 7 83q0 100 -49 100q-50 0 -50 -103q0 -54 6 -76q11 -37 44 -37z" />
    <glyph glyph-name="h" unicode="h" horiz-adv-x="648" 
d="M60 203v317q0 92 -9 240q48 -9 112 -9t110 9q-10 -257 -10 -308l2 -1q56 76 149 76q174 0 174 -176v-65q-1 -50 -1 -73q0 -158 3 -213q-84 9 -109 9q-32 0 -109 -9q8 157 8 294q0 53 -7 74q-13 35 -50 35t-49 -48q-7 -28 -7 -102q0 -187 6 -253q-68 9 -113 9
q-28 0 -109 -9q9 144 9 203z" />
    <glyph glyph-name="i" unicode="i" horiz-adv-x="333" 
d="M62 278q0 147 -8 246q48 -9 112 -9q58 0 113 9q-9 -123 -9 -267q0 -166 6 -257q-70 9 -117 9q-27 0 -106 -9l4 62q5 73 5 216zM61 672q0 42 31.5 73.5t74.5 31.5q42 0 73.5 -31t31.5 -74t-31.5 -74t-73.5 -31q-43 0 -74.5 31.5t-31.5 73.5z" />
    <glyph glyph-name="j" unicode="j" horiz-adv-x="333" 
d="M70 48v243q0 149 -9 233q48 -9 116 -9q43 0 108 9q-10 -149 -10 -358q0 -30 1 -90.5t1 -90.5q0 -220 -307 -245q0 14 -7 65q80 7 98 81q9 38 9 162zM68 672q0 42 31 73.5t74 31.5t74 -31t31 -74t-31 -74t-74 -31t-74 31.5t-31 73.5z" />
    <glyph glyph-name="k" unicode="k" 
d="M60 203v317q0 96 -9 240q49 -9 112 -9t110 9q-11 -188 -11 -413v-44l92 108q54 66 82 113q39 -9 73 -9q24 0 73 9v-14q-109 -109 -163 -167l168 -302q7 -13 15 -22v-19q-54 9 -110 9q-59 0 -116 -9l-113 229q0 -78 11 -229q-65 9 -110 9q-34 0 -113 -9q9 153 9 203z" />
    <glyph glyph-name="l" unicode="l" horiz-adv-x="333" 
d="M62 203v317q0 74 -5 162l-4 78q48 -9 112 -9t112 9q-7 -182 -7 -262v-249q0 -78 6 -249q-65 9 -110 9q-30 0 -113 -9q9 142 9 203z" />
    <glyph glyph-name="m" unicode="m" horiz-adv-x="944" 
d="M262 524l-5 -79q34 40 59 56q41 26 100 26q107 0 147 -88q49 88 159 88q170 0 162 -214q-2 -51 -2 -162q0 -93 4 -151q-67 9 -110 9q-28 0 -107 -9q7 128 7 272q0 74 -6 96q-8 35 -39 35q-37 0 -48 -35q-8 -25 -8 -106q0 -194 6 -262q-79 9 -105 9q-29 0 -115 -9
q8 134 8 251q0 94 -6 118q-9 34 -43 34q-35 0 -45 -35q-7 -20 -7 -75v-171q0 -46 4 -122q-85 9 -113 9t-107 -9q10 89 10 291q0 132 -9 233q63 -9 106 -9q59 0 103 9z" />
    <glyph glyph-name="n" unicode="n" horiz-adv-x="648" 
d="M62 260q0 181 -9 264q59 -9 106 -9q53 0 104 9q-1 -39 -6 -78q41 43 72 60q38 21 88 21q170 0 170 -171v-81q-1 -58 -1 -81q0 -139 3 -194q-65 9 -108 9q-49 0 -110 -9q8 157 8 294q0 52 -8 74q-12 35 -47 35q-39 0 -51 -46q-7 -28 -7 -104q0 -187 6 -253q-114 9 -113 9
q-26 0 -107 -9q10 106 10 260z" />
    <glyph glyph-name="o" unicode="o" horiz-adv-x="648" 
d="M326 528q139 0 218 -78q74 -73 74 -187q0 -129 -86 -200q-79 -67 -209 -67q-133 0 -211 66q-82 69 -82 200q0 126 87 198q82 68 209 68zM392 262q0 99 -9 138q-15 62 -59 62q-42 0 -57 -55q-11 -40 -11 -137q0 -102 9 -142q14 -66 59 -66t59 61q9 38 9 139z" />
    <glyph glyph-name="p" unicode="p" horiz-adv-x="648" 
d="M262 260q0 -180 68 -180q35 0 51 39.5t16 130.5q0 84 -8 122q-15 65 -59 65q-68 0 -68 -177zM266 47v-109q0 -86 8 -203q-74 9 -111 9q-44 0 -111 -9q9 154 9 359q0 237 -8 430q81 -9 108 -9q50 0 98 9l-4 -61q59 64 135 64q106 0 170 -80q59 -74 59 -183
q0 -108 -56 -185q-62 -86 -165 -86q-86 0 -132 54z" />
    <glyph glyph-name="q" unicode="q" horiz-adv-x="648" 
d="M251 250q0 -76 8 -110q15 -60 59 -60q37 0 53 45q14 41 14 129q0 85 -8 121q-15 62 -59 62q-37 0 -52 -43t-15 -144zM392 463l-3 61q56 -9 101 -9q38 0 105 9l-4 -78q-4 -78 -4 -260q0 -305 4 -370l5 -81q-55 9 -110 9q-45 0 -112 -9q8 134 8 203v109q-28 -27 -48 -37
q-34 -17 -85 -17q-104 0 -166 88q-54 77 -54 183q0 113 63 188t160 75q84 0 140 -64z" />
    <glyph glyph-name="r" unicode="r" horiz-adv-x="463" 
d="M266 524l-8 -136h4q14 54 53 94q46 45 104 45q24 0 43 -7q-14 -80 -14 -183l-13 -7q-29 26 -74 26q-55 0 -76 -36q-14 -26 -14 -85q0 -110 8 -235q-70 9 -117 9q-27 0 -108 -9q11 65 11 255q0 128 -8 269q53 -9 110 -9q55 0 99 9z" />
    <glyph glyph-name="s" unicode="s" horiz-adv-x="481" 
d="M67 157h39q26 -86 128 -86q66 0 66 42q0 18 -11.5 26.5t-45.5 19.5l-72 23q-129 41 -129 154q0 96 70 147q61 44 157 44q75 0 155 -29q-14 -65 -20 -125h-38q-21 78 -107 78q-22 0 -42 -9q-24 -12 -24 -33q0 -20 20 -32q13 -8 57 -21l69 -21q118 -36 118 -155
q0 -93 -72 -143q-63 -44 -159 -44q-83 0 -175 30q6 45 16 134z" />
    <glyph glyph-name="t" unicode="t" horiz-adv-x="370" 
d="M278 438v-301q0 -61 60 -61q22 0 49 12q-4 -16 -4 -31q0 -12 4 -34q-89 -31 -153 -31q-166 0 -166 164q0 24 2 74t2 75v133q-27 0 -79 -4q5 45 5 38q0 22 -5 39q42 -4 79 -4v130q120 49 201 105l18 -12q-13 -81 -13 -223q36 0 90 4q-4 -26 -4 -39q0 6 4 -38q-40 4 -90 4z
" />
    <glyph glyph-name="u" unicode="u" horiz-adv-x="648" 
d="M61 320q0 170 -3 204q88 -9 117 -9q41 0 102 9q-8 -128 -8 -279q0 -64 7 -87q12 -38 49 -38t49 46q7 27 7 93q0 187 -6 265q68 -9 113 -9q53 0 107 9q-9 -52 -9 -292q0 -166 8 -232q-67 9 -109 9q-27 0 -101 -9q5 40 6 77q-41 -45 -73 -61q-37 -19 -93 -19
q-80 0 -122 45.5t-42 126.5q0 21 1 76v75z" />
    <glyph glyph-name="v" unicode="v" horiz-adv-x="537" 
d="M308 254l13 -47q41 122 95 317q38 -9 64 -9q32 0 65 9q-120 -284 -198 -524q-47 9 -78 9q-34 0 -86 -9q-30 107 -132 380q-19 48 -58 144q51 -9 123 -9q69 0 122 9q23 -90 70 -270z" />
    <glyph glyph-name="w" unicode="w" horiz-adv-x="852" 
d="M648 215l20 69q31 108 61 240q40 -9 63 -9q25 0 61 9l-17 -45q-126 -335 -166 -479q-43 9 -76 9q-35 0 -85 -9q-18 88 -87 305q-43 -135 -89 -305q-45 9 -76 9q-34 0 -86 -9q-24 112 -93 321q-30 91 -77 203q72 -9 121 -9q69 0 119 9q27 -149 68 -309q28 83 85 309
q52 -9 90 -9q47 0 90 9q26 -127 74 -309z" />
    <glyph glyph-name="x" unicode="x" horiz-adv-x="537" 
d="M175 235l-103 178q-22 37 -67 111q63 -9 127 -9q66 0 116 9q27 -68 65 -137q27 46 79 137q47 -9 70 -9q25 0 66 9q-84 -104 -169 -219q41 -75 177 -305q-44 9 -125 9q-28 0 -114 -9q-34 81 -74 146q-39 -60 -86 -146q-47 9 -63 9q-20 0 -74 -9q61 75 175 235z" />
    <glyph glyph-name="y" unicode="y" horiz-adv-x="537" 
d="M101 -265l36 73q56 114 83 176q-55 148 -120 298q-37 81 -109 242q55 -9 127 -9q75 0 120 9q28 -92 86 -277q63 180 87 277q43 -9 67 -9q22 0 67 9l-16 -36q-213 -480 -299 -753q-47 9 -62 9t-67 -9z" />
    <glyph glyph-name="z" unicode="z" horiz-adv-x="537" 
d="M512 462q-84 -108 -241 -372q97 0 241 9q-5 -23 -5 -54q0 -29 5 -45q-108 9 -235 9q-169 0 -265 -9q4 13 4 29q0 17 -4 33q115 148 237 372q-122 0 -212 -9q5 40 5 49q0 10 -5 50q76 -9 252 -9q140 0 223 9q-4 -18 -4 -32q0 10 4 -30z" />
    <glyph glyph-name="braceleft" unicode="{" horiz-adv-x="400" 
d="M380 722v-70q-63 -3 -85 -42q-15 -27 -15 -93v-50q0 -155 -135 -168q135 -13 135 -168v-50q0 -66 15 -93q22 -39 85 -42v-70q-151 3 -207 58q-43 41 -43 132v70q0 57 -14 81q-24 40 -96 47v70q72 7 96 47q14 24 14 81v70q0 91 43 132q56 55 207 58z" />
    <glyph glyph-name="bar" unicode="|" horiz-adv-x="222" 
d="M56 -250v1000h110v-1000h-110z" />
    <glyph glyph-name="braceright" unicode="}" horiz-adv-x="400" 
d="M20 -124v70q63 3 85 42q15 27 15 93v50q0 155 135 168q-135 13 -135 168v50q0 66 -15 93q-22 39 -85 42v70q151 -3 208 -58q42 -41 42 -132v-70q0 -57 14 -81q24 -40 96 -47v-70q-72 -7 -96 -47q-14 -24 -14 -81v-70q0 -91 -42 -132q-57 -55 -208 -58z" />
    <glyph glyph-name="asciitilde" unicode="~" horiz-adv-x="667" 
d="M113 199h-77q7 80 45 139q45 70 117 70q50 0 146 -41q100 -43 127 -43q36 0 59 32q19 26 24 65h77q-7 -80 -45 -139q-45 -70 -117 -70q-46 0 -144 42t-129 42q-36 0 -59 -32q-19 -26 -24 -65z" />
    <glyph glyph-name="Euro" 
d="M15 446l43 -3q18 116 102 188q89 77 224 77q108 0 209 -53q-21 -49 -26 -98l-3 -27h-19q-17 50 -55 80t-90 30q-64 0 -101 -63q-30 -51 -38 -134l266 4l-32 -73l-237 4v-77l206 4l-32 -74l-168 4q4 -68 37 -115q41 -59 113 -59q51 0 97 28q32 19 58 49l15 -9
q-8 -23 -26 -101q-86 -40 -182 -40q-109 0 -185 49q-108 70 -133 198l-73 -5l30 72l35 -1q-4 46 -1 77l-64 -5z" />
    <glyph glyph-name="Euro" unicode="&#x20ac;" 
d="M15 446l43 -3q18 116 102 188q89 77 224 77q108 0 209 -53q-21 -49 -26 -98l-3 -27h-19q-17 50 -55 80t-90 30q-64 0 -101 -63q-30 -51 -38 -134l266 4l-32 -73l-237 4v-77l206 4l-32 -74l-168 4q4 -68 37 -115q41 -59 113 -59q51 0 97 28q32 19 58 49l15 -9
q-8 -23 -26 -101q-86 -40 -182 -40q-109 0 -185 49q-108 70 -133 198l-73 -5l30 72l35 -1q-4 46 -1 77l-64 -5z" />
    <glyph glyph-name="Zcaron" horiz-adv-x="667" 
d="M646 716v-43q-102 -144 -239 -392l-97 -176q184 0 339 12q-6 -42 -6 -60q0 -27 6 -57q-131 9 -308 9q-205 0 -327 -9v46q116 172 327 565q-168 0 -299 -11q6 21 6 54q0 31 -6 62q122 -9 320 -9q142 0 284 9zM440 937h79l-123 -181h-125l-121 181h77l107 -93z" />
    <glyph glyph-name="Zcaron" unicode="&#x17d;" horiz-adv-x="667" 
d="M646 716v-43q-102 -144 -239 -392l-97 -176q184 0 339 12q-6 -42 -6 -60q0 -27 6 -57q-131 9 -308 9q-205 0 -327 -9v46q116 172 327 565q-168 0 -299 -11q6 21 6 54q0 31 -6 62q122 -9 320 -9q142 0 284 9zM440 937h79l-123 -181h-125l-121 181h77l107 -93z" />
    <glyph glyph-name="zcaron" horiz-adv-x="537" 
d="M512 462q-84 -108 -241 -372q97 0 241 9q-5 -23 -5 -54q0 -29 5 -45q-108 9 -235 9q-169 0 -265 -9q4 13 4 29q0 17 -4 33q115 148 237 372q-122 0 -212 -9q5 40 5 49q0 10 -5 50q76 -9 252 -9q140 0 223 9q-4 -18 -4 -32q0 10 4 -30zM375 769h79l-123 -181h-125
l-121 181h77l107 -93z" />
    <glyph glyph-name="zcaron" unicode="&#x17e;" horiz-adv-x="537" 
d="M512 462q-84 -108 -241 -372q97 0 241 9q-5 -23 -5 -54q0 -29 5 -45q-108 9 -235 9q-169 0 -265 -9q4 13 4 29q0 17 -4 33q115 148 237 372q-122 0 -212 -9q5 40 5 49q0 10 -5 50q76 -9 252 -9q140 0 223 9q-4 -18 -4 -32q0 10 4 -30zM375 769h79l-123 -181h-125
l-121 181h77l107 -93z" />
    <glyph glyph-name="nonbreakingspace" unicode="&#xa0;" horiz-adv-x="296" 
 />
    <glyph glyph-name="exclamdown" unicode="&#xa1;" horiz-adv-x="333" 
d="M143 272h52l56 -242q21 -91 21 -125q0 -112 -105 -112t-105 106q0 38 30 162zM63 424q0 43 30.5 73.5t73.5 30.5t73.5 -30.5t30.5 -73.5q0 -42 -30.5 -73t-73.5 -31t-73.5 31t-30.5 73z" />
    <glyph glyph-name="cent" unicode="&#xa2;" 
d="M218 -117l37 121q-93 22 -145 95q-50 68 -50 160q0 124 84 197q80 71 206 71q33 0 64 -6l34 110l54 -15l-34 -110q42 -16 63 -26q-11 -34 -31 -120h-37q-5 28 -8 36q-4 14 -14 24l-95 -309q24 -16 55 -16q55 0 99 53l31 -20q-21 -47 -36 -96q-18 -13 -69 -24.5t-94 -11.5
q-14 0 -21 1l-40 -129zM306 169l86 279h-7q-95 0 -95 -165q0 -68 16 -114z" />
    <glyph glyph-name="sterling" unicode="&#xa3;" 
d="M525 536h-37q-13 93 -83 93q-33 0 -56.5 -22t-23.5 -54q0 -26 6.5 -78.5t6.5 -79.5q27 0 70 2q54 2 70 2q-3 -18 -3 -35q0 -18 3 -36q-17 0 -71 2q-44 2 -71 2q-12 -50 -35 -80q-33 -44 -110 -86q181 0 362 9l-6 -81q0 -47 6 -94q-118 9 -237 9q-114 0 -272 -9q6 50 6 76
q0 33 -6 83q47 4 67 19q36 24 36 87q0 36 -8 67q-19 0 -49 -2q-38 -2 -49 -2q3 36 3 37t-3 34q10 0 45 -2q27 -2 44 -2q-12 42 -12 89q0 108 81 169q73 55 182 55q97 0 177 -37q-16 -38 -33 -135z" />
    <glyph glyph-name="currency" unicode="&#xa4;" 
d="M18 545l72 72l74 -74q57 39 133 39t133 -39l74 74l72 -72l-74 -74q40 -62 40 -133q0 -75 -40 -133l74 -74l-72 -72l-74 74q-55 -39 -133 -39q-76 0 -133 39l-74 -74l-72 72l74 74q-41 63 -40 133q1 68 40 133zM167 338q0 -58 36.5 -94t93.5 -36q59 0 94.5 36t35.5 94
t-35.5 94t-94.5 36q-57 0 -93.5 -36t-36.5 -94z" />
    <glyph glyph-name="yen" unicode="&#xa5;" 
d="M393 279v-15q36 0 152 4q-3 -18 -3 -35q0 -18 3 -36q-92 4 -152 4q0 -91 12 -201q-48 9 -106 9q-40 0 -108 -9q10 113 10 201q-46 0 -152 -4q3 18 3 37q0 18 -3 34q90 -4 152 -4v15q0 19 -16 53l-7 15q-39 0 -129 -4q3 18 3 37q0 18 -3 34q66 -4 99 -4q-96 192 -148 287
q57 -9 126 -9q74 0 111 9q40 -119 115 -287q70 148 116 287q45 -9 61 -9q32 0 64 9q-71 -122 -150 -287q20 0 102 4q-3 -18 -3 -35q0 -18 3 -36q-82 4 -132 4l-6 -12q-14 -28 -14 -56z" />
    <glyph glyph-name="brokenbar" unicode="&#xa6;" horiz-adv-x="222" 
d="M56 -175v350h110v-350h-110zM56 325v350h110v-350h-110z" />
    <glyph glyph-name="section" unicode="&#xa7;" 
d="M465 553h-42q-29 81 -114 81q-24 0 -44 -12q-23 -13 -23 -36q0 -20 18 -33q14 -9 58 -26q76 -29 83 -32q52 -22 80 -42q68 -49 68 -133q0 -61 -26 -102q-16 -24 -59 -60q48 -43 48 -112q0 -96 -73 -145q-63 -41 -166 -41q-105 0 -193 40q9 66 15 132h44q1 -42 41 -70
t91 -28q34 0 56.5 15.5t22.5 39.5q0 21 -23 36q-14 10 -68 33q-35 14 -71 29q-42 18 -67 35q-77 52 -77 141q0 54 19 88.5t67 70.5q-48 45 -48 105q0 92 71 139q61 41 159 41q77 0 166 -34q-10 -69 -13 -120zM421 189q20 23 20 39q0 29 -30 51q-19 13 -66 32
q-119 47 -175 81q-19 -19 -19 -42q0 -26 21.5 -42.5t104.5 -52.5q50 -20 144 -66z" />
    <glyph glyph-name="dieresis" unicode="&#xa8;" horiz-adv-x="278" 
d="M22 757q34 0 60 -25t26 -60q0 -34 -25.5 -60t-60.5 -26q-34 0 -59.5 26t-25.5 60q0 35 25.5 60t59.5 25zM256 757q34 0 59.5 -25t25.5 -60t-25.5 -60.5t-59.5 -25.5q-35 0 -60.5 25.5t-25.5 60.5t25.5 60t60.5 25z" />
    <glyph glyph-name="copyright" unicode="&#xa9;" horiz-adv-x="800" 
d="M33 361q0 153 107 258.5t260 105.5t260 -105.5t107 -258.5q0 -151 -106.5 -257.5t-260.5 -106.5t-260.5 106.5t-106.5 257.5zM93 361q0 -129 89 -219t218 -90q132 0 219.5 88.5t87.5 220.5q0 130 -89 219.5t-218 89.5t-218 -89.5t-89 -219.5zM566 463h-26q-17 65 -96 65
q-125 0 -127 -156q-2 -172 125 -172q60 0 123 52l20 -10q-7 -23 -20 -71q-85 -29 -152 -29q-107 0 -178 59t-71 157q0 105 77 167q73 58 188 58q76 0 156 -30q-14 -54 -19 -90z" />
    <glyph glyph-name="ordfeminine" unicode="&#xaa;" horiz-adv-x="375" 
d="M323 612q0 -16 -1.5 -59.5t-1.5 -58.5q0 -47 21 -47q14 0 26 6q-2 -12 -2 -18l2 -22q-40 -27 -91 -27q-44 0 -75 32q-39 -32 -93 -32q-104 0 -104 87q0 44 34 67q23 16 85 32q47 12 58.5 17.5t11.5 19.5q0 37 -55 37q-48 0 -67 -31l-23 1l-14 57q68 34 146 34
q71 0 109 -28q34 -25 34 -67zM191 481v66q-31 -12 -40 -21q-13 -13 -13 -41q0 -38 24 -38q29 0 29 34z" />
    <glyph glyph-name="guillemotleft" unicode="&#xab;" horiz-adv-x="500" 
d="M236 270l30 40q32 42 115 171q44 -40 88 -60q-81 -104 -115 -150q37 -51 112 -151q-48 -30 -86 -63q-38 61 -144 213zM32 273l30 40q32 42 115 171q44 -40 88 -60q-81 -104 -115 -150q37 -51 112 -151q-48 -30 -86 -63q-38 61 -144 213z" />
    <glyph glyph-name="logicalnot" unicode="&#xac;" horiz-adv-x="667" 
d="M603 458v-294h-109v185h-430v109h539z" />
    <glyph glyph-name="hyphen" unicode="&#xad;" horiz-adv-x="426" 
d="M46 348q81 -6 161 -6q87 0 172 6q-6 -66 -6 -74q0 -26 6 -70q-66 6 -167 6q-82 0 -166 -6q0 5 3 35q3 24 3 37q0 3 -6 72z" />
    <glyph glyph-name="registered" unicode="&#xae;" horiz-adv-x="500" 
d="M472 505q0 -95 -63 -157.5t-159 -62.5q-95 0 -158.5 63t-63.5 157q0 96 62.5 158t159.5 62t159.5 -62t62.5 -158zM76 505q0 -75 50.5 -126t123.5 -51t123.5 51.5t50.5 125.5q0 75 -50.5 126t-123.5 51t-123.5 -51t-50.5 -126zM358 557q0 -43 -55 -53q44 -70 70 -105
q-22 3 -45 3t-46 -3q-20 42 -52 92h-4q0 -30 2 -92q-19 3 -40 3q-19 0 -43 -3q4 42 4 108q0 27 -3 108q24 -3 49 -3q11 0 32.5 1.5t31.5 1.5q99 0 99 -58zM226 589v-73q27 0 37 5q15 8 15 32q0 36 -52 36z" />
    <glyph glyph-name="macron" unicode="&#xaf;" horiz-adv-x="278" 
d="M-19 624v91h316v-91h-316z" />
    <glyph glyph-name="degree" unicode="&#xb0;" horiz-adv-x="400" 
d="M359 548q0 -64 -47 -111.5t-112 -47.5t-112 47t-47 112q0 67 47 113t112 46t112 -46.5t47 -112.5zM281 548q0 34 -23 57.5t-58 23.5q-34 0 -57.5 -23.5t-23.5 -57.5q0 -33 23.5 -57t57.5 -24t57.5 24.5t23.5 56.5z" />
    <glyph glyph-name="plusminus" unicode="&#xb1;" horiz-adv-x="667" 
d="M279 580h109v-154h215v-109h-215v-154h-109v154h-215v109h215v154zM603 113v-109h-539v109h539z" />
    <glyph glyph-name="twosuperior" unicode="&#xb2;" horiz-adv-x="390" 
d="M111 560l-14 -5q-30 38 -78 69q36 49 78 67q36 16 96 16q74 0 121 -32t47 -81q0 -67 -83 -128q-12 -9 -82 -53l-38 -24q121 0 205 7q-4 -31 -4 -54q0 -25 4 -59q-64 5 -162 5q-76 0 -169 -5q2 10 2 32q0 10 -2 30q34 24 78 65q49 45 68 72q34 49 34 114q0 61 -45 61
q-50 0 -56 -97z" />
    <glyph glyph-name="threesuperior" unicode="&#xb3;" horiz-adv-x="390" 
d="M84 412l17 -4q0 -31 14 -54q17 -27 47 -27q59 0 59 78q0 73 -54 73q-10 0 -30 -2q3 24 3 25t-2 23q18 -2 26 -2q50 0 50 70q0 69 -49 69q-44 0 -52 -83l-12 -2q-25 32 -70 64q54 67 151 67q64 0 109 -23q57 -29 57 -83q0 -37 -29 -63q-25 -22 -62 -30q43 -5 72 -29
q33 -27 33 -68q0 -65 -61 -100q-52 -30 -129 -30q-50 0 -83 12t-70 46q23 21 65 73z" />
    <glyph glyph-name="acute" unicode="&#xb4;" horiz-adv-x="278" 
d="M122 588h-68l112 150q34 46 78 46q64 0 64 -53q0 -36 -64 -73z" />
    <glyph glyph-name="mu" unicode="&#xb5;" horiz-adv-x="648" 
d="M586 232q0 -166 8 -232q-67 9 -109 9q-27 0 -101 -9q7 46 7 77q-43 -80 -90 -80q-22 0 -36 9v-52q0 -97 9 -219q-74 9 -111 9q-44 0 -111 -9l4 81q6 121 6 361q0 271 -4 347q88 -9 117 -9q41 0 102 9q-8 -128 -8 -291q0 -53 7 -75q12 -38 49 -38t49 46q7 27 7 93
q0 187 -6 265q68 -9 113 -9q53 0 107 9q-9 -52 -9 -292z" />
    <glyph glyph-name="paragraph" unicode="&#xb6;" horiz-adv-x="620" 
d="M334 -176h-102v427q-90 0 -150 62t-60 161q0 117 77 181q71 61 190 61h293v-80h-50v-812h-102v812h-96v-812z" />
    <glyph glyph-name="periodcentered" unicode="&#xb7;" horiz-adv-x="296" 
d="M252 310q0 -43 -30.5 -73.5t-73.5 -30.5t-73.5 30.5t-30.5 73.5q0 42 30.5 73t73.5 31t73.5 -31t30.5 -73z" />
    <glyph glyph-name="periodcentered" unicode="&#x2219;" horiz-adv-x="296" 
d="M252 310q0 -43 -30.5 -73.5t-73.5 -30.5t-73.5 30.5t-30.5 73.5q0 42 30.5 73t73.5 31t73.5 -31t30.5 -73z" />
    <glyph glyph-name="cedilla" unicode="&#xb8;" horiz-adv-x="278" 
d="M25 -201l18 44q44 -14 66 -14q47 0 47 39q0 34 -40 34q-9 0 -23 -6q-11 7 -17 9l47 99h46l-28 -62q23 5 39 5q37 0 63.5 -18t26.5 -52q0 -46 -40.5 -70.5t-98.5 -24.5q-53 0 -106 17z" />
    <glyph glyph-name="onesuperior" unicode="&#xb9;" horiz-adv-x="390" 
d="M265 713l22 -10q-6 -94 -6 -199t5 -221q-40 5 -75 5q-29 0 -72 -5q5 63 5 213q0 66 -2 94q-44 -18 -70 -34q-20 27 -44 51q25 8 69 26q106 43 168 80z" />
    <glyph glyph-name="ordmasculine" unicode="&#xba;" horiz-adv-x="425" 
d="M20 547q0 76 57 119q54 41 139 41q90 0 142 -47q48 -44 48 -112q0 -77 -54.5 -118.5t-141.5 -41.5t-137 39q-53 42 -53 120zM172 547q0 -54 5 -76q9 -38 36 -38t36 36q5 22 5 78t-5 79q-9 36 -36 36q-26 0 -35 -33q-6 -23 -6 -82z" />
    <glyph glyph-name="guillemotright" unicode="&#xbb;" horiz-adv-x="500" 
d="M468 271l-30 -40q-32 -42 -115 -171q-44 40 -88 60q81 104 115 150q-36 52 -112 151q48 30 86 63q38 -61 144 -213zM264 271l-30 -40q-32 -42 -115 -171q-44 40 -88 60q81 104 115 150q-36 52 -112 151q48 30 86 63q38 -61 144 -213z" />
    <glyph glyph-name="onequarter" unicode="&#xbc;" horiz-adv-x="900" 
d="M817 281v-105q33 0 64 3q-3 -24 -3 -46q0 -25 3 -48q-13 2 -39 2h-25q0 -50 3 -85q-26 5 -71 5q-30 0 -65 -5q3 78 3 84q-13 1 -36 1q-60 0 -129 -3q3 26 3 46q0 -4 -3 41q73 86 178 249q20 -3 61 -3q30 0 60 3q0 -13 -2 -69q-2 -43 -2 -70zM689 176v135l-95 -135h95z
M620 723h79l-418 -749h-79zM265 713l22 -10q-6 -94 -6 -199t5 -221q-40 5 -75 5q-29 0 -72 -5q5 63 5 213q0 66 -2 94q-44 -18 -70 -34q-20 27 -44 51q25 8 69 26q106 43 168 80z" />
    <glyph glyph-name="onehalf" unicode="&#xbd;" horiz-adv-x="900" 
d="M615 723h79l-418 -749h-79zM265 713l22 -10q-6 -94 -6 -199t5 -221q-40 5 -75 5q-29 0 -72 -5q5 63 5 213q0 66 -2 94q-44 -18 -70 -34q-20 27 -44 51q25 8 69 26q106 43 168 80zM621 280l-14 -5q-30 38 -78 69q36 49 78 67q36 16 96 16q74 0 121 -32t47 -81
q0 -67 -83 -128q-12 -9 -82 -53l-38 -24q121 0 205 7q-4 -31 -4 -54q0 -25 4 -59q-64 5 -162 5q-76 0 -169 -5q2 10 2 32q0 10 -2 30q34 24 78 65q49 45 68 72q34 49 34 114q0 61 -45 61q-50 0 -56 -97z" />
    <glyph glyph-name="threequarters" unicode="&#xbe;" horiz-adv-x="900" 
d="M817 281v-105q33 0 64 3q-3 -24 -3 -46q0 -25 3 -48q-13 2 -39 2h-25q0 -50 3 -85q-26 5 -71 5q-30 0 -65 -5q3 78 3 84q-13 1 -36 1q-60 0 -129 -3q3 26 3 46q0 -4 -3 41q73 86 178 249q20 -3 61 -3q30 0 60 3q0 -13 -2 -69q-2 -43 -2 -70zM689 176v135l-95 -135h95z
M630 723h79l-418 -749h-79zM84 412l17 -4q0 -31 14 -54q17 -27 47 -27q59 0 59 78q0 73 -54 73q-10 0 -30 -2q3 24 3 25t-2 23q18 -2 26 -2q50 0 50 70q0 69 -49 69q-44 0 -52 -83l-12 -2q-25 32 -70 64q54 67 151 67q64 0 109 -23q57 -29 57 -83q0 -37 -29 -63
q-25 -22 -62 -30q43 -5 72 -29q33 -27 33 -68q0 -65 -61 -100q-52 -30 -129 -30q-50 0 -83 12t-70 46q23 21 65 73z" />
    <glyph glyph-name="questiondown" unicode="&#xbf;" horiz-adv-x="426" 
d="M97 197l-12 8q12 28 22 63q35 7 69 7q91 0 138 -47q37 -36 37 -86t-28 -87q-10 -13 -68 -68q-28 -26 -30 -29q-14 -17 -14 -37t16 -33.5t39 -13.5q68 0 97 62h24q2 -62 9 -103q-112 -39 -169 -39q-97 0 -155 51q-53 45 -53 111q0 44 19 73q16 25 69 67q28 21 55 42.5
t27 39.5q0 38 -41 38q-27 0 -51 -19zM111 424q0 43 30.5 73.5t73.5 30.5t73.5 -30.5t30.5 -73.5q0 -42 -30.5 -73t-73.5 -31t-73.5 31t-30.5 73z" />
    <glyph glyph-name="Agrave" unicode="&#xc0;" horiz-adv-x="722" 
d="M175 143q-14 -36 -45 -143q-41 9 -68 9t-67 -9l62 133q33 71 145 346q41 101 92 241q41 -9 70 -9q31 0 71 9q53 -169 143 -393q41 -103 138 -327q-44 9 -131 9q-52 0 -129 -9q-20 76 -44 143q-22 0 -66 1h-66h-52q-35 -1 -53 -1zM380 233l-86 233l-90 -233q30 -1 88 -1
q59 0 88 1zM445 756h-67l-122 70q-62 36 -62 72q0 55 62 55q43 0 78 -47z" />
    <glyph glyph-name="Aacute" unicode="&#xc1;" horiz-adv-x="722" 
d="M175 143q-14 -36 -45 -143q-41 9 -68 9t-67 -9l62 133q33 71 145 346q41 101 92 241q41 -9 70 -9q31 0 71 9q53 -169 143 -393q41 -103 138 -327q-44 9 -131 9q-52 0 -129 -9q-20 76 -44 143q-22 0 -66 1h-66h-52q-35 -1 -53 -1zM380 233l-86 233l-90 -233q30 -1 88 -1
q59 0 88 1zM334 756h-68l112 150q34 46 78 46q64 0 64 -53q0 -36 -64 -73z" />
    <glyph glyph-name="Acircumflex" unicode="&#xc2;" horiz-adv-x="722" 
d="M175 143q-14 -36 -45 -143q-41 9 -68 9t-67 -9l62 133q33 71 145 346q41 101 92 241q41 -9 70 -9q31 0 71 9q53 -169 143 -393q41 -103 138 -327q-44 9 -131 9q-52 0 -129 -9q-20 76 -44 143q-22 0 -66 1h-66h-52q-35 -1 -53 -1zM380 233l-86 233l-90 -233q30 -1 88 -1
q59 0 88 1zM254 756h-77l121 181h125l123 -181h-79l-106 93z" />
    <glyph glyph-name="Atilde" unicode="&#xc3;" horiz-adv-x="722" 
d="M175 143q-14 -36 -45 -143q-41 9 -68 9t-67 -9l62 133q33 71 145 346q41 101 92 241q41 -9 70 -9q31 0 71 9q53 -169 143 -393q41 -103 138 -327q-44 9 -131 9q-52 0 -129 -9q-20 76 -44 143q-22 0 -66 1h-66h-52q-35 -1 -53 -1zM380 233l-86 233l-90 -233q30 -1 88 -1
q59 0 88 1zM506 917h54q-9 -58 -39 -98q-36 -47 -89 -47q-42 0 -99 26t-70 26q-34 0 -47 -48h-53q8 56 36 97q34 50 85 50q35 0 94 -26t79 -26q31 0 49 46z" />
    <glyph glyph-name="Adieresis" unicode="&#xc4;" horiz-adv-x="722" 
d="M175 143q-14 -36 -45 -143q-41 9 -68 9t-67 -9l62 133q33 71 145 346q41 101 92 241q41 -9 70 -9q31 0 71 9q53 -169 143 -393q41 -103 138 -327q-44 9 -131 9q-52 0 -129 -9q-20 76 -44 143q-22 0 -66 1h-66h-52q-35 -1 -53 -1zM380 233l-86 233l-90 -233q30 -1 88 -1
q59 0 88 1zM244 925q34 0 60 -25t26 -60q0 -34 -25.5 -60t-60.5 -26q-34 0 -59.5 26t-25.5 60q0 35 25.5 60t59.5 25zM478 925q34 0 59.5 -25t25.5 -60t-25.5 -60.5t-59.5 -25.5q-35 0 -60.5 25.5t-25.5 60.5t25.5 60t60.5 25z" />
    <glyph glyph-name="Aring" unicode="&#xc5;" horiz-adv-x="722" 
d="M175 143q-14 -36 -45 -143q-41 9 -68 9t-67 -9l62 133q33 71 145 346q41 101 92 241q41 -9 70 -9q31 0 71 9q53 -169 143 -393q41 -103 138 -327q-44 9 -131 9q-52 0 -129 -9q-20 76 -44 143q-22 0 -66 1h-66h-52q-35 -1 -53 -1zM380 233l-86 233l-90 -233q30 -1 88 -1
q59 0 88 1zM361 739q-45 0 -78 33t-33 78t33 78t78 33t78 -33t33 -78t-33 -78t-78 -33zM361 798q21 0 36.5 15.5t15.5 36.5t-15.5 36.5t-36.5 15.5t-36.5 -15.5t-15.5 -36.5t15.5 -36.5t36.5 -15.5z" />
    <glyph glyph-name="AE" unicode="&#xc6;" horiz-adv-x="926" 
d="M185 160q-51 -111 -69 -160q-69 9 -73 9q-5 0 -74 -9l25 42q103 174 159 273l70 125q108 194 147 276q96 -9 224 -9q120 0 291 9q-5 -45 -5 -53t5 -56q-117 7 -149 7h-86v-196q92 0 226 10q-5 -30 -5 -53q0 -26 5 -54q-137 9 -226 9v-229h51q30 0 184 7q-5 -47 -5 -57
q0 -24 5 -51q-83 9 -278 9q-117 0 -187 -9q7 49 7 160q-20 0 -59.5 1t-59.5 1q-41 0 -123 -2zM427 250v366q-92 -168 -198 -366q33 -1 99 -1t99 1z" />
    <glyph glyph-name="Ccedilla" unicode="&#xc7;" horiz-adv-x="722" 
d="M339 -95l42 88q-150 12 -244 107q-99 99 -99 251q0 174 120 277q113 97 290 97q115 0 240 -49q-6 -22 -16 -67q-6 -28 -14 -83h-40q-12 52 -53 80t-95 28q-103 0 -153 -83q-41 -67 -42 -177q-3 -287 192 -287q61 0 113 29q30 17 77 58l31 -17q-20 -66 -32 -118
q-127 -47 -230 -48l-22 -49q23 5 39 5q37 0 63.5 -18t26.5 -52q0 -46 -40.5 -70.5t-98.5 -24.5q-53 0 -106 17l18 44q44 -14 66 -14q47 0 47 39q0 34 -40 34q-9 0 -23 -6q-11 7 -17 9z" />
    <glyph glyph-name="Egrave" unicode="&#xc8;" horiz-adv-x="611" 
d="M307 330v-229h70q30 0 184 7q-5 -47 -5 -57q0 -24 5 -51q-104 9 -242 9q-140 0 -244 -9q8 92 8 349q0 211 -10 367q124 -9 208 -9q200 0 280 9q-5 -45 -5 -53t5 -56q-117 7 -149 7h-105v-196q84 0 245 10q-5 -30 -5 -53q0 -11 5 -54q-121 9 -245 9zM400 756h-67l-122 70
q-62 36 -62 72q0 55 62 55q43 0 78 -47z" />
    <glyph glyph-name="Eacute" unicode="&#xc9;" horiz-adv-x="611" 
d="M307 330v-229h70q30 0 184 7q-5 -47 -5 -57q0 -24 5 -51q-104 9 -242 9q-140 0 -244 -9q8 92 8 349q0 211 -10 367q124 -9 208 -9q200 0 280 9q-5 -45 -5 -53t5 -56q-117 7 -149 7h-105v-196q84 0 245 10q-5 -30 -5 -53q0 -11 5 -54q-121 9 -245 9zM314 756h-68l112 150
q34 46 78 46q64 0 64 -53q0 -36 -64 -73z" />
    <glyph glyph-name="Ecircumflex" unicode="&#xca;" horiz-adv-x="611" 
d="M307 330v-229h70q30 0 184 7q-5 -47 -5 -57q0 -24 5 -51q-104 9 -242 9q-140 0 -244 -9q8 92 8 349q0 211 -10 367q124 -9 208 -9q200 0 280 9q-5 -45 -5 -53t5 -56q-117 7 -149 7h-105v-196q84 0 245 10q-5 -30 -5 -53q0 -11 5 -54q-121 9 -245 9zM199 756h-77l121 181
h125l123 -181h-79l-106 93z" />
    <glyph glyph-name="Edieresis" unicode="&#xcb;" horiz-adv-x="611" 
d="M307 330v-229h70q30 0 184 7q-5 -47 -5 -57q0 -24 5 -51q-104 9 -242 9q-140 0 -244 -9q8 92 8 349q0 211 -10 367q124 -9 208 -9q200 0 280 9q-5 -45 -5 -53t5 -56q-117 7 -149 7h-105v-196q84 0 245 10q-5 -30 -5 -53q0 -11 5 -54q-121 9 -245 9zM189 925q34 0 60 -25
t26 -60q0 -34 -25.5 -60t-60.5 -26q-34 0 -59.5 26t-25.5 60q0 35 25.5 60t59.5 25zM423 925q34 0 59.5 -25t25.5 -60t-25.5 -60.5t-59.5 -25.5q-35 0 -60.5 25.5t-25.5 60.5t25.5 60t60.5 25z" />
    <glyph glyph-name="Igrave" unicode="&#xcc;" horiz-adv-x="389" 
d="M306 432v-100q0 -228 10 -332q-55 9 -125 9q-45 0 -119 -9q10 157 10 330q0 27 -1 110.5t-1 110.5q0 77 -8 165q79 -9 122 -9q60 0 123 9q-11 -148 -11 -284zM284 756h-67l-122 70q-62 36 -62 72q0 55 62 55q43 0 78 -47z" />
    <glyph glyph-name="Iacute" unicode="&#xcd;" horiz-adv-x="389" 
d="M306 432v-100q0 -228 10 -332q-55 9 -125 9q-45 0 -119 -9q10 157 10 330q0 27 -1 110.5t-1 110.5q0 77 -8 165q79 -9 122 -9q60 0 123 9q-11 -148 -11 -284zM168 756h-68l112 150q34 46 78 46q64 0 64 -53q0 -36 -64 -73z" />
    <glyph glyph-name="Icircumflex" unicode="&#xce;" horiz-adv-x="389" 
d="M306 432v-100q0 -228 10 -332q-55 9 -125 9q-45 0 -119 -9q10 157 10 330q0 27 -1 110.5t-1 110.5q0 77 -8 165q79 -9 122 -9q60 0 123 9q-11 -148 -11 -284zM88 756h-77l121 181h125l123 -181h-79l-106 93z" />
    <glyph glyph-name="Idieresis" unicode="&#xcf;" horiz-adv-x="389" 
d="M306 432v-100q0 -228 10 -332q-55 9 -125 9q-45 0 -119 -9q10 157 10 330q0 27 -1 110.5t-1 110.5q0 77 -8 165q79 -9 122 -9q60 0 123 9q-11 -148 -11 -284zM78 925q34 0 60 -25t26 -60q0 -34 -25.5 -60t-60.5 -26q-34 0 -59.5 26t-25.5 60q0 35 25.5 60t59.5 25z
M312 925q34 0 59.5 -25t25.5 -60t-25.5 -60.5t-59.5 -25.5q-35 0 -60.5 25.5t-25.5 60.5t25.5 60t60.5 25z" />
    <glyph glyph-name="Eth" unicode="&#xd0;" horiz-adv-x="815" 
d="M303 463v-59q68 0 117 5q-3 -28 -3 -48q0 -19 3 -45q-49 5 -117 5q0 -43 1 -125t1 -112q20 -1 61 -1q98 0 136 70q35 63 35 213q0 164 -55 224q-39 43 -127 43q-22 0 -48 -3q-4 -76 -4 -167zM779 367q0 -110 -47.5 -197t-127.5 -126q-89 -44 -186 -44q-34 0 -102.5 4.5
t-103.5 4.5q-36 0 -142 -9q11 168 11 321q-47 0 -81 -5q3 26 3 45q0 20 -3 48q34 -5 81 -5q0 114 -9 312q72 -9 120 -9q33 0 99.5 4.5t99.5 4.5q149 0 245 -61q70 -45 108 -125q35 -75 35 -163z" />
    <glyph glyph-name="Ntilde" unicode="&#xd1;" horiz-adv-x="796" 
d="M318 277l-55 63q-28 30 -85 91v-104q0 -98 14 -327q-32 9 -60 9q-23 0 -68 -9q19 197 19 376q0 207 -8 340q50 -9 85 -9q32 0 77 9q103 -133 237 -275q45 -50 143 -156q0 34 -2 88q-2 72 -2 87q-3 138 -11 256q41 -9 68 -9q30 0 60 9q-4 -50 -10 -152q-8 -213 -8 -404
q0 -54 4 -160q-38 9 -82 9q-30 0 -77 -9q-42 52 -239 277zM553 917h54q-9 -58 -39 -98q-36 -47 -89 -47q-42 0 -99 26t-70 26q-34 0 -47 -48h-53q8 56 36 97q34 50 85 50q35 0 94 -26t79 -26q31 0 49 46z" />
    <glyph glyph-name="Ograve" unicode="&#xd2;" horiz-adv-x="889" 
d="M442 725q179 0 291 -93q119 -99 119 -270q0 -180 -120 -279q-111 -92 -294 -92q-171 0 -283 97q-118 101 -118 270q0 174 117 273q110 94 288 94zM450 73q162 0 162 287q0 283 -169 283q-94 0 -135 -93q-31 -68 -31 -176q0 -129 26 -197q40 -104 147 -104zM529 756h-67
l-122 70q-62 36 -62 72q0 55 62 55q43 0 78 -47z" />
    <glyph glyph-name="Oacute" unicode="&#xd3;" horiz-adv-x="889" 
d="M442 725q179 0 291 -93q119 -99 119 -270q0 -180 -120 -279q-111 -92 -294 -92q-171 0 -283 97q-118 101 -118 270q0 174 117 273q110 94 288 94zM450 73q162 0 162 287q0 283 -169 283q-94 0 -135 -93q-31 -68 -31 -176q0 -129 26 -197q40 -104 147 -104zM428 756h-68
l112 150q34 46 78 46q64 0 64 -53q0 -36 -64 -73z" />
    <glyph glyph-name="Ocircumflex" unicode="&#xd4;" horiz-adv-x="889" 
d="M442 725q179 0 291 -93q119 -99 119 -270q0 -180 -120 -279q-111 -92 -294 -92q-171 0 -283 97q-118 101 -118 270q0 174 117 273q110 94 288 94zM450 73q162 0 162 287q0 283 -169 283q-94 0 -135 -93q-31 -68 -31 -176q0 -129 26 -197q40 -104 147 -104zM338 756h-77
l121 181h125l123 -181h-79l-106 93z" />
    <glyph glyph-name="Otilde" unicode="&#xd5;" horiz-adv-x="889" 
d="M442 725q179 0 291 -93q119 -99 119 -270q0 -180 -120 -279q-111 -92 -294 -92q-171 0 -283 97q-118 101 -118 270q0 174 117 273q110 94 288 94zM450 73q162 0 162 287q0 283 -169 283q-94 0 -135 -93q-31 -68 -31 -176q0 -129 26 -197q40 -104 147 -104zM590 917h54
q-9 -58 -39 -98q-36 -47 -89 -47q-42 0 -99 26t-70 26q-34 0 -47 -48h-53q8 56 36 97q34 50 85 50q35 0 94 -26t79 -26q31 0 49 46z" />
    <glyph glyph-name="Odieresis" unicode="&#xd6;" horiz-adv-x="889" 
d="M442 725q179 0 291 -93q119 -99 119 -270q0 -180 -120 -279q-111 -92 -294 -92q-171 0 -283 97q-118 101 -118 270q0 174 117 273q110 94 288 94zM450 73q162 0 162 287q0 283 -169 283q-94 0 -135 -93q-31 -68 -31 -176q0 -129 26 -197q40 -104 147 -104zM328 925
q34 0 60 -25t26 -60q0 -34 -25.5 -60t-60.5 -26q-34 0 -59.5 26t-25.5 60q0 35 25.5 60t59.5 25zM562 925q34 0 59.5 -25t25.5 -60t-25.5 -60.5t-59.5 -25.5q-35 0 -60.5 25.5t-25.5 60.5t25.5 60t60.5 25z" />
    <glyph glyph-name="multiply" unicode="&#xd7;" horiz-adv-x="667" 
d="M333 388l186 184l77 -76l-185 -185l185 -185l-77 -77l-186 185l-184 -185l-77 77l185 185l-185 185l77 76z" />
    <glyph glyph-name="Oslash" unicode="&#xd8;" horiz-adv-x="889" 
d="M65 -15l91 101q-119 102 -119 272q0 174 117 273q110 94 288 94q137 0 239 -57l91 98l48 -48l-82 -90q114 -98 114 -266q0 -180 -120 -279q-111 -92 -294 -92q-127 0 -226 56l-99 -110zM289 233l290 321q-40 89 -136 89q-94 0 -135 -93q-31 -68 -31 -176q0 -79 12 -141z
M602 478l-290 -321q41 -84 138 -84q162 0 162 287q0 65 -10 118z" />
    <glyph glyph-name="Ugrave" unicode="&#xd9;" horiz-adv-x="796" 
d="M77 302q0 296 -11 414q66 -9 125 -9q71 0 124 9q-14 -85 -14 -345q0 -138 19 -184q31 -75 134 -75q87 0 122 66q19 37 21 115q1 47 1 144q0 143 -12 279q59 -9 78 -9q29 0 70 9q-14 -191 -14 -369q0 -99 -11 -147q-14 -62 -55 -110q-85 -99 -255 -99q-164 0 -243 75
t-79 236zM502 756h-67l-122 70q-62 36 -62 72q0 55 62 55q43 0 78 -47z" />
    <glyph glyph-name="Uacute" unicode="&#xda;" horiz-adv-x="796" 
d="M77 302q0 296 -11 414q66 -9 125 -9q71 0 124 9q-14 -85 -14 -345q0 -138 19 -184q31 -75 134 -75q87 0 122 66q19 37 21 115q1 47 1 144q0 143 -12 279q59 -9 78 -9q29 0 70 9q-14 -191 -14 -369q0 -99 -11 -147q-14 -62 -55 -110q-85 -99 -255 -99q-164 0 -243 75
t-79 236zM421 756h-68l112 150q34 46 78 46q64 0 64 -53q0 -36 -64 -73z" />
    <glyph glyph-name="Ucircumflex" unicode="&#xdb;" horiz-adv-x="796" 
d="M77 302q0 296 -11 414q66 -9 125 -9q71 0 124 9q-14 -85 -14 -345q0 -138 19 -184q31 -75 134 -75q87 0 122 66q19 37 21 115q1 47 1 144q0 143 -12 279q59 -9 78 -9q29 0 70 9q-14 -191 -14 -369q0 -99 -11 -147q-14 -62 -55 -110q-85 -99 -255 -99q-164 0 -243 75
t-79 236zM301 756h-77l121 181h125l123 -181h-79l-106 93z" />
    <glyph glyph-name="Udieresis" unicode="&#xdc;" horiz-adv-x="796" 
d="M77 302q0 296 -11 414q66 -9 125 -9q71 0 124 9q-14 -85 -14 -345q0 -138 19 -184q31 -75 134 -75q87 0 122 66q19 37 21 115q1 47 1 144q0 143 -12 279q59 -9 78 -9q29 0 70 9q-14 -191 -14 -369q0 -99 -11 -147q-14 -62 -55 -110q-85 -99 -255 -99q-164 0 -243 75
t-79 236zM301 925q34 0 60 -25t26 -60q0 -34 -25.5 -60t-60.5 -26q-34 0 -59.5 26t-25.5 60q0 35 25.5 60t59.5 25zM535 925q34 0 59.5 -25t25.5 -60t-25.5 -60.5t-59.5 -25.5q-35 0 -60.5 25.5t-25.5 60.5t25.5 60t60.5 25z" />
    <glyph glyph-name="Yacute" unicode="&#xdd;" horiz-adv-x="685" 
d="M456 317q-2 -56 -2 -84q0 -122 13 -233q-54 9 -120 9q-48 0 -122 -9q10 137 10 289q0 9 -22 52q-34 65 -105 198l-101 177q63 -9 142 -9q82 0 126 9q25 -70 136 -292q80 162 127 292q50 -9 68 -9q38 0 70 9q-75 -120 -206 -372zM366 756h-68l112 150q34 46 78 46
q64 0 64 -53q0 -36 -64 -73z" />
    <glyph glyph-name="Thorn" unicode="&#xde;" horiz-adv-x="704" 
d="M80 335q0 234 -11 381q62 -7 134 -7q52 0 111 7q-10 -102 -10 -144q78 2 105 2q269 0 269 -195q0 -114 -84 -169q-71 -46 -192 -46q-46 0 -99 5q0 -64 10 -169q-83 9 -112 9q-54 0 -135 -9q14 151 14 335zM447 373q0 71 -33 99q-25 22 -76 22q-12 0 -34 -2
q-1 -101 -1 -246q12 -2 38 -2q106 0 106 129z" />
    <glyph glyph-name="germandbls" unicode="&#xdf;" horiz-adv-x="667" 
d="M323 124h45q17 -32 26 -42q18 -19 44 -19q43 0 43 40q0 33 -89 122q-50 49 -61 68q-17 25 -17 62q0 52 49 114q40 51 51 68q24 41 24 80q0 41 -27 64q-22 19 -55 19q-62 0 -81 -68q-12 -41 -12 -144q0 -200 10 -488q-108 9 -109 9q-42 0 -110 -9q8 104 8 197
q0 26 -1 95.5t-1 95.5q0 100 5 145q9 73 38 123q69 120 248 120q84 0 140 -31q69 -37 69 -112q0 -37 -19 -65q-12 -18 -49 -52q-29 -27 -29 -44q0 -15 18 -35q12 -13 65 -64t69 -75q25 -36 25 -85q0 -100 -68 -163q-64 -60 -160 -60q-42 0 -93 14q5 37 5 72q0 31 -1 48z" />
    <glyph glyph-name="agrave" unicode="&#xe0;" horiz-adv-x="574" 
d="M23 133q0 73 52 111q37 28 130 53q72 19 90.5 30t18.5 38q0 68 -87 68q-80 0 -110 -54l-29 2l-20 89q108 57 219 57q108 0 167 -47q53 -43 53 -112q0 -27 -2.5 -99.5t-2.5 -96.5q0 -45 4 -61q7 -25 31 -25q15 0 37 11l-3 -30l3 -27q-62 -47 -136 -47q-72 0 -115 55
q-58 -55 -140 -55q-73 0 -114 34q-46 36 -46 106zM221 155q0 -65 42 -65q48 0 48 46v128q-57 -21 -73.5 -41.5t-16.5 -67.5zM371 588h-67l-122 70q-62 36 -62 72q0 55 62 55q43 0 78 -47z" />
    <glyph glyph-name="aacute" unicode="&#xe1;" horiz-adv-x="574" 
d="M23 133q0 73 52 111q37 28 130 53q72 19 90.5 30t18.5 38q0 68 -87 68q-80 0 -110 -54l-29 2l-20 89q108 57 219 57q108 0 167 -47q53 -43 53 -112q0 -27 -2.5 -99.5t-2.5 -96.5q0 -45 4 -61q7 -25 31 -25q15 0 37 11l-3 -30l3 -27q-62 -47 -136 -47q-72 0 -115 55
q-58 -55 -140 -55q-73 0 -114 34q-46 36 -46 106zM221 155q0 -65 42 -65q48 0 48 46v128q-57 -21 -73.5 -41.5t-16.5 -67.5zM260 588h-68l112 150q34 46 78 46q64 0 64 -53q0 -36 -64 -73z" />
    <glyph glyph-name="acircumflex" unicode="&#xe2;" horiz-adv-x="574" 
d="M23 133q0 73 52 111q37 28 130 53q72 19 90.5 30t18.5 38q0 68 -87 68q-80 0 -110 -54l-29 2l-20 89q108 57 219 57q108 0 167 -47q53 -43 53 -112q0 -27 -2.5 -99.5t-2.5 -96.5q0 -45 4 -61q7 -25 31 -25q15 0 37 11l-3 -30l3 -27q-62 -47 -136 -47q-72 0 -115 55
q-58 -55 -140 -55q-73 0 -114 34q-46 36 -46 106zM221 155q0 -65 42 -65q48 0 48 46v128q-57 -21 -73.5 -41.5t-16.5 -67.5zM180 588h-77l121 181h125l123 -181h-79l-106 93z" />
    <glyph glyph-name="atilde" unicode="&#xe3;" horiz-adv-x="574" 
d="M23 133q0 73 52 111q37 28 130 53q72 19 90.5 30t18.5 38q0 68 -87 68q-80 0 -110 -54l-29 2l-20 89q108 57 219 57q108 0 167 -47q53 -43 53 -112q0 -27 -2.5 -99.5t-2.5 -96.5q0 -45 4 -61q7 -25 31 -25q15 0 37 11l-3 -30l3 -27q-62 -47 -136 -47q-72 0 -115 55
q-58 -55 -140 -55q-73 0 -114 34q-46 36 -46 106zM221 155q0 -65 42 -65q48 0 48 46v128q-57 -21 -73.5 -41.5t-16.5 -67.5zM432 749h54q-9 -58 -39 -98q-36 -47 -89 -47q-42 0 -99 26t-70 26q-34 0 -47 -48h-53q8 56 36 97q34 50 85 50q35 0 94 -26t79 -26q31 0 49 46z" />
    <glyph glyph-name="adieresis" unicode="&#xe4;" horiz-adv-x="574" 
d="M23 133q0 73 52 111q37 28 130 53q72 19 90.5 30t18.5 38q0 68 -87 68q-80 0 -110 -54l-29 2l-20 89q108 57 219 57q108 0 167 -47q53 -43 53 -112q0 -27 -2.5 -99.5t-2.5 -96.5q0 -45 4 -61q7 -25 31 -25q15 0 37 11l-3 -30l3 -27q-62 -47 -136 -47q-72 0 -115 55
q-58 -55 -140 -55q-73 0 -114 34q-46 36 -46 106zM221 155q0 -65 42 -65q48 0 48 46v128q-57 -21 -73.5 -41.5t-16.5 -67.5zM170 757q34 0 60 -25t26 -60q0 -34 -25.5 -60t-60.5 -26q-34 0 -59.5 26t-25.5 60q0 35 25.5 60t59.5 25zM404 757q34 0 59.5 -25t25.5 -60
t-25.5 -60.5t-59.5 -25.5q-35 0 -60.5 25.5t-25.5 60.5t25.5 60t60.5 25z" />
    <glyph glyph-name="aring" unicode="&#xe5;" horiz-adv-x="574" 
d="M23 133q0 73 52 111q37 28 130 53q72 19 90.5 30t18.5 38q0 68 -87 68q-80 0 -110 -54l-29 2l-20 89q108 57 219 57q108 0 167 -47q53 -43 53 -112q0 -27 -2.5 -99.5t-2.5 -96.5q0 -45 4 -61q7 -25 31 -25q15 0 37 11l-3 -30l3 -27q-62 -47 -136 -47q-72 0 -115 55
q-58 -55 -140 -55q-73 0 -114 34q-46 36 -46 106zM221 155q0 -65 42 -65q48 0 48 46v128q-57 -21 -73.5 -41.5t-16.5 -67.5zM287 571q-45 0 -78 33t-33 78t33 78t78 33t78 -33t33 -78t-33 -78t-78 -33zM287 630q21 0 36.5 15.5t15.5 36.5t-15.5 36.5t-36.5 15.5t-36.5 -15.5
t-15.5 -36.5t15.5 -36.5t36.5 -15.5z" />
    <glyph glyph-name="ae" unicode="&#xe6;" horiz-adv-x="852" 
d="M125 380h-32q-5 25 -21 90q59 31 88 41q49 16 114 16q48 0 78.5 -10.5t71.5 -40.5q35 25 56 34q38 16 92 17q132 2 203 -93q42 -56 46 -186q-78 3 -88 3q-107 0 -217 -3q0 -67 30 -109q34 -49 97 -49q33 0 72 17t63 42l25 -27q-22 -41 -36 -86q-91 -43 -179 -43
q-126 0 -204 83q-72 -83 -183 -83q-73 0 -120 33q-54 38 -54 106q0 72 63 114q39 26 125 50q78 22 94 30q21 11 21 37q0 33 -27 51.5t-64 18.5q-77 0 -114 -53zM228 159q0 -65 54 -65q45 0 46 46l2 128q-64 -20 -83 -41.5t-19 -67.5zM516 318h114q1 67 -6 95q-11 46 -48 46
q-39 0 -52 -48q-8 -28 -8 -93z" />
    <glyph glyph-name="ccedilla" unicode="&#xe7;" horiz-adv-x="519" 
d="M316 -3l-25 -55q23 5 39 5q37 0 63.5 -18t26.5 -52q0 -46 -40.5 -70.5t-98.5 -24.5q-53 0 -106 17l18 44q44 -14 66 -14q47 0 47 39q0 34 -40 34q-9 0 -23 -6q-11 7 -17 9l45 94q-114 8 -180 84q-62 71 -62 176q0 127 86 200q79 68 203 68q83 0 182 -47q-11 -36 -31 -120
h-37q-16 88 -79 88q-94 0 -94 -172q0 -181 111 -181q55 0 99 53l31 -20q-21 -47 -36 -96q-17 -12 -61.5 -23t-86.5 -12z" />
    <glyph glyph-name="egrave" unicode="&#xe8;" horiz-adv-x="574" 
d="M241 318h113q1 67 -6 95q-11 46 -48 46q-39 0 -52 -48q-7 -27 -7 -93zM502 151l25 -27q-23 -42 -36 -88q-85 -40 -179 -40q-156 0 -230 97q-53 70 -53 171q0 115 65 186q71 77 202 77q133 0 203 -94q42 -56 46 -185q-78 3 -88 3q-108 0 -216 -3q0 -65 30 -107
q33 -48 96 -48q34 0 72.5 16.5t62.5 41.5zM381 588h-67l-122 70q-62 36 -62 72q0 55 62 55q43 0 78 -47z" />
    <glyph glyph-name="eacute" unicode="&#xe9;" horiz-adv-x="574" 
d="M241 318h113q1 67 -6 95q-11 46 -48 46q-39 0 -52 -48q-7 -27 -7 -93zM502 151l25 -27q-23 -42 -36 -88q-85 -40 -179 -40q-156 0 -230 97q-53 70 -53 171q0 115 65 186q71 77 202 77q133 0 203 -94q42 -56 46 -185q-78 3 -88 3q-108 0 -216 -3q0 -65 30 -107
q33 -48 96 -48q34 0 72.5 16.5t62.5 41.5zM275 588h-68l112 150q34 46 78 46q64 0 64 -53q0 -36 -64 -73z" />
    <glyph glyph-name="ecircumflex" unicode="&#xea;" horiz-adv-x="574" 
d="M241 318h113q1 67 -6 95q-11 46 -48 46q-39 0 -52 -48q-7 -27 -7 -93zM502 151l25 -27q-23 -42 -36 -88q-85 -40 -179 -40q-156 0 -230 97q-53 70 -53 171q0 115 65 186q71 77 202 77q133 0 203 -94q42 -56 46 -185q-78 3 -88 3q-108 0 -216 -3q0 -65 30 -107
q33 -48 96 -48q34 0 72.5 16.5t62.5 41.5zM180 588h-77l121 181h125l123 -181h-79l-106 93z" />
    <glyph glyph-name="edieresis" unicode="&#xeb;" horiz-adv-x="574" 
d="M241 318h113q1 67 -6 95q-11 46 -48 46q-39 0 -52 -48q-7 -27 -7 -93zM502 151l25 -27q-23 -42 -36 -88q-85 -40 -179 -40q-156 0 -230 97q-53 70 -53 171q0 115 65 186q71 77 202 77q133 0 203 -94q42 -56 46 -185q-78 3 -88 3q-108 0 -216 -3q0 -65 30 -107
q33 -48 96 -48q34 0 72.5 16.5t62.5 41.5zM170 757q34 0 60 -25t26 -60q0 -34 -25.5 -60t-60.5 -26q-34 0 -59.5 26t-25.5 60q0 35 25.5 60t59.5 25zM404 757q34 0 59.5 -25t25.5 -60t-25.5 -60.5t-59.5 -25.5q-35 0 -60.5 25.5t-25.5 60.5t25.5 60t60.5 25z" />
    <glyph glyph-name="igrave" unicode="&#xec;" horiz-adv-x="333" 
d="M62 278q0 147 -8 246q48 -9 112 -9q58 0 113 9q-9 -123 -9 -267q0 -166 6 -257q-70 9 -117 9q-27 0 -106 -9l4 62q5 73 5 216zM251 588h-67l-122 70q-62 36 -62 72q0 55 62 55q43 0 78 -47z" />
    <glyph glyph-name="iacute" unicode="&#xed;" horiz-adv-x="333" 
d="M62 278q0 147 -8 246q48 -9 112 -9q58 0 113 9q-9 -123 -9 -267q0 -166 6 -257q-70 9 -117 9q-27 0 -106 -9l4 62q5 73 5 216zM145 588h-68l112 150q34 46 78 46q64 0 64 -53q0 -36 -64 -73z" />
    <glyph glyph-name="icircumflex" unicode="&#xee;" horiz-adv-x="333" 
d="M62 278q0 147 -8 246q48 -9 112 -9q58 0 113 9q-9 -123 -9 -267q0 -166 6 -257q-70 9 -117 9q-27 0 -106 -9l4 62q5 73 5 216zM60 588h-77l121 181h125l123 -181h-79l-106 93z" />
    <glyph glyph-name="idieresis" unicode="&#xef;" horiz-adv-x="333" 
d="M62 278q0 147 -8 246q48 -9 112 -9q58 0 113 9q-9 -123 -9 -267q0 -166 6 -257q-70 9 -117 9q-27 0 -106 -9l4 62q5 73 5 216zM50 757q34 0 60 -25t26 -60q0 -34 -25.5 -60t-60.5 -26q-34 0 -59.5 26t-25.5 60q0 35 25.5 60t59.5 25zM284 757q34 0 59.5 -25t25.5 -60
t-25.5 -60.5t-59.5 -25.5q-35 0 -60.5 25.5t-25.5 60.5t25.5 60t60.5 25z" />
    <glyph glyph-name="eth" unicode="&#xf0;" horiz-adv-x="648" 
d="M392 262q0 99 -9 138q-15 62 -59 62q-42 0 -57 -55q-11 -40 -11 -137q0 -102 9 -142q14 -66 59 -66t59 61q9 38 9 139zM30 262q0 126 87 198q82 68 209 68q-24 36 -60 73q-86 -30 -141 -58q-11 34 -34 65q32 8 133 43q-40 41 -82 78q101 20 173 47h20q24 -20 67 -61
q48 17 140 57q11 -34 34 -65q-50 -12 -127 -40q169 -176 169 -377q0 -150 -84 -225q-76 -69 -211 -69q-133 0 -211 66q-82 69 -82 200z" />
    <glyph glyph-name="ntilde" unicode="&#xf1;" horiz-adv-x="648" 
d="M62 260q0 181 -9 264q59 -9 106 -9q53 0 104 9q-1 -39 -6 -78q41 43 72 60q38 21 88 21q170 0 170 -171v-81q-1 -58 -1 -81q0 -139 3 -194q-65 9 -108 9q-49 0 -110 -9q8 157 8 294q0 52 -8 74q-12 35 -47 35q-39 0 -51 -46q-7 -28 -7 -104q0 -187 6 -253q-114 9 -113 9
q-26 0 -107 -9q10 106 10 260zM469 749h54q-9 -58 -39 -98q-36 -47 -89 -47q-42 0 -99 26t-70 26q-34 0 -47 -48h-53q8 56 36 97q34 50 85 50q35 0 94 -26t79 -26q31 0 49 46z" />
    <glyph glyph-name="ograve" unicode="&#xf2;" horiz-adv-x="648" 
d="M326 528q139 0 218 -78q74 -73 74 -187q0 -129 -86 -200q-79 -67 -209 -67q-133 0 -211 66q-82 69 -82 200q0 126 87 198q82 68 209 68zM392 262q0 99 -9 138q-15 62 -59 62q-42 0 -57 -55q-11 -40 -11 -137q0 -102 9 -142q14 -66 59 -66t59 61q9 38 9 139zM408 588h-67
l-122 70q-62 36 -62 72q0 55 62 55q43 0 78 -47z" />
    <glyph glyph-name="oacute" unicode="&#xf3;" horiz-adv-x="648" 
d="M326 528q139 0 218 -78q74 -73 74 -187q0 -129 -86 -200q-79 -67 -209 -67q-133 0 -211 66q-82 69 -82 200q0 126 87 198q82 68 209 68zM392 262q0 99 -9 138q-15 62 -59 62q-42 0 -57 -55q-11 -40 -11 -137q0 -102 9 -142q14 -66 59 -66t59 61q9 38 9 139zM307 588h-68
l112 150q34 46 78 46q64 0 64 -53q0 -36 -64 -73z" />
    <glyph glyph-name="ocircumflex" unicode="&#xf4;" horiz-adv-x="648" 
d="M326 528q139 0 218 -78q74 -73 74 -187q0 -129 -86 -200q-79 -67 -209 -67q-133 0 -211 66q-82 69 -82 200q0 126 87 198q82 68 209 68zM392 262q0 99 -9 138q-15 62 -59 62q-42 0 -57 -55q-11 -40 -11 -137q0 -102 9 -142q14 -66 59 -66t59 61q9 38 9 139zM217 588h-77
l121 181h125l123 -181h-79l-106 93z" />
    <glyph glyph-name="otilde" unicode="&#xf5;" horiz-adv-x="648" 
d="M326 528q139 0 218 -78q74 -73 74 -187q0 -129 -86 -200q-79 -67 -209 -67q-133 0 -211 66q-82 69 -82 200q0 126 87 198q82 68 209 68zM392 262q0 99 -9 138q-15 62 -59 62q-42 0 -57 -55q-11 -40 -11 -137q0 -102 9 -142q14 -66 59 -66t59 61q9 38 9 139zM469 749h54
q-9 -58 -39 -98q-36 -47 -89 -47q-42 0 -99 26t-70 26q-34 0 -47 -48h-53q8 56 36 97q34 50 85 50q35 0 94 -26t79 -26q31 0 49 46z" />
    <glyph glyph-name="odieresis" unicode="&#xf6;" horiz-adv-x="648" 
d="M326 528q139 0 218 -78q74 -73 74 -187q0 -129 -86 -200q-79 -67 -209 -67q-133 0 -211 66q-82 69 -82 200q0 126 87 198q82 68 209 68zM392 262q0 99 -9 138q-15 62 -59 62q-42 0 -57 -55q-11 -40 -11 -137q0 -102 9 -142q14 -66 59 -66t59 61q9 38 9 139zM207 757
q34 0 60 -25t26 -60q0 -34 -25.5 -60t-60.5 -26q-34 0 -59.5 26t-25.5 60q0 35 25.5 60t59.5 25zM441 757q34 0 59.5 -25t25.5 -60t-25.5 -60.5t-59.5 -25.5q-35 0 -60.5 25.5t-25.5 60.5t25.5 60t60.5 25z" />
    <glyph glyph-name="divide" unicode="&#xf7;" horiz-adv-x="667" 
d="M603 365v-109h-539v109h539zM333 595q35 0 60.5 -25.5t25.5 -59.5t-25.5 -60t-60.5 -26q-34 0 -59.5 26t-25.5 60t25.5 59.5t59.5 25.5zM333 197q35 0 60.5 -25.5t25.5 -59.5t-25.5 -60t-60.5 -26q-34 0 -59.5 26t-25.5 60t25.5 59.5t59.5 25.5z" />
    <glyph glyph-name="oslash" unicode="&#xf8;" horiz-adv-x="648" 
d="M479 496l74 89l44 -37l-69 -84q90 -73 90 -201q0 -129 -86 -200q-80 -67 -212 -67q-92 0 -149 28l-70 -85l-49 39l66 80q-88 75 -88 196q0 127 80.5 200.5t215.5 73.5q86 0 153 -32zM256 227l131 157q-14 78 -62 78q-43 0 -58 -55q-11 -40 -11 -137v-43zM392 297
l-129 -158q14 -77 62 -77q46 0 59 63q8 40 8 172z" />
    <glyph glyph-name="ugrave" unicode="&#xf9;" horiz-adv-x="648" 
d="M61 320q0 170 -3 204q88 -9 117 -9q41 0 102 9q-8 -128 -8 -279q0 -64 7 -87q12 -38 49 -38t49 46q7 27 7 93q0 187 -6 265q68 -9 113 -9q53 0 107 9q-9 -52 -9 -292q0 -166 8 -232q-67 9 -109 9q-27 0 -101 -9q5 40 6 77q-41 -45 -73 -61q-37 -19 -93 -19
q-80 0 -122 45.5t-42 126.5q0 21 1 76v75zM408 588h-67l-122 70q-62 36 -62 72q0 55 62 55q43 0 78 -47z" />
    <glyph glyph-name="uacute" unicode="&#xfa;" horiz-adv-x="648" 
d="M61 320q0 170 -3 204q88 -9 117 -9q41 0 102 9q-8 -128 -8 -279q0 -64 7 -87q12 -38 49 -38t49 46q7 27 7 93q0 187 -6 265q68 -9 113 -9q53 0 107 9q-9 -52 -9 -292q0 -166 8 -232q-67 9 -109 9q-27 0 -101 -9q5 40 6 77q-41 -45 -73 -61q-37 -19 -93 -19
q-80 0 -122 45.5t-42 126.5q0 21 1 76v75zM307 588h-68l112 150q34 46 78 46q64 0 64 -53q0 -36 -64 -73z" />
    <glyph glyph-name="ucircumflex" unicode="&#xfb;" horiz-adv-x="648" 
d="M61 320q0 170 -3 204q88 -9 117 -9q41 0 102 9q-8 -128 -8 -279q0 -64 7 -87q12 -38 49 -38t49 46q7 27 7 93q0 187 -6 265q68 -9 113 -9q53 0 107 9q-9 -52 -9 -292q0 -166 8 -232q-67 9 -109 9q-27 0 -101 -9q5 40 6 77q-41 -45 -73 -61q-37 -19 -93 -19
q-80 0 -122 45.5t-42 126.5q0 21 1 76v75zM217 588h-77l121 181h125l123 -181h-79l-106 93z" />
    <glyph glyph-name="udieresis" unicode="&#xfc;" horiz-adv-x="648" 
d="M61 320q0 170 -3 204q88 -9 117 -9q41 0 102 9q-8 -128 -8 -279q0 -64 7 -87q12 -38 49 -38t49 46q7 27 7 93q0 187 -6 265q68 -9 113 -9q53 0 107 9q-9 -52 -9 -292q0 -166 8 -232q-67 9 -109 9q-27 0 -101 -9q5 40 6 77q-41 -45 -73 -61q-37 -19 -93 -19
q-80 0 -122 45.5t-42 126.5q0 21 1 76v75zM207 757q34 0 60 -25t26 -60q0 -34 -25.5 -60t-60.5 -26q-34 0 -59.5 26t-25.5 60q0 35 25.5 60t59.5 25zM441 757q34 0 59.5 -25t25.5 -60t-25.5 -60.5t-59.5 -25.5q-35 0 -60.5 25.5t-25.5 60.5t25.5 60t60.5 25z" />
    <glyph glyph-name="yacute" unicode="&#xfd;" horiz-adv-x="537" 
d="M101 -265l36 73q56 114 83 176q-55 148 -120 298q-37 81 -109 242q55 -9 127 -9q75 0 120 9q28 -92 86 -277q63 180 87 277q43 -9 67 -9q22 0 67 9l-16 -36q-213 -480 -299 -753q-47 9 -62 9t-67 -9zM277 588h-68l112 150q34 46 78 46q64 0 64 -53q0 -36 -64 -73z" />
    <glyph glyph-name="thorn" unicode="&#xfe;" horiz-adv-x="648" 
d="M262 260q0 -180 68 -180q35 0 51 39.5t16 130.5q0 84 -8 122q-15 65 -59 65q-68 0 -68 -177zM266 47v-109q0 -86 8 -203q-74 9 -111 9q-44 0 -111 -9l4 81q5 101 5 450q0 283 -8 494q81 -9 108 -9q47 0 105 9q-8 -99 -8 -294q56 61 132 61q106 0 170 -80q59 -74 59 -183
q0 -108 -56 -185q-62 -86 -165 -86q-86 0 -132 54z" />
    <glyph glyph-name="ydieresis" unicode="&#xff;" horiz-adv-x="537" 
d="M101 -265l36 73q56 114 83 176q-55 148 -120 298q-37 81 -109 242q55 -9 127 -9q75 0 120 9q28 -92 86 -277q63 180 87 277q43 -9 67 -9q22 0 67 9l-16 -36q-213 -480 -299 -753q-47 9 -62 9t-67 -9zM162 757q34 0 60 -25t26 -60q0 -34 -25.5 -60t-60.5 -26
q-34 0 -59.5 26t-25.5 60q0 35 25.5 60t59.5 25zM396 757q34 0 59.5 -25t25.5 -60t-25.5 -60.5t-59.5 -25.5q-35 0 -60.5 25.5t-25.5 60.5t25.5 60t60.5 25z" />
    <glyph glyph-name="OE" unicode="&#x152;" horiz-adv-x="1093" 
d="M432 73q163 0 163 302q0 268 -162 268t-162 -296q0 -103 30 -175q42 -99 131 -99zM37 357q0 166 96 267t261 101q139 0 209 -90q0 27 -4 81q88 -7 226 -7q38 0 218 7q-5 -45 -5 -53t5 -56q-117 7 -149 7h-82v-196q93 0 222 10q-5 -30 -5 -53q0 -11 5 -54q-133 9 -222 9
v-229h47q30 0 184 7q-5 -47 -5 -57q0 -24 5 -51q-99 9 -232 9q-132 0 -216 -9q8 48 8 91q-87 -100 -212 -100q-163 0 -259 102q-95 99 -95 264z" />
    <glyph glyph-name="oe" unicode="&#x153;" horiz-adv-x="907" 
d="M30 258q0 128 86 202q79 67 200 67q107 0 167 -60q52 60 149 60q133 0 203 -94q42 -56 46 -185q-78 3 -88 3q-107 0 -217 -3q0 -65 30 -107q33 -48 96 -48q34 0 73 16.5t63 41.5l25 -27q-23 -42 -36 -88q-85 -40 -179 -40q-102 0 -169 62q-68 -62 -170 -62
q-122 0 -198 68q-81 71 -81 194zM251 261q0 -97 9 -136q15 -63 59 -63q48 0 62 80q5 31 5 119q0 105 -8 141q-14 59 -59 59q-49 0 -62 -80q-6 -32 -6 -120zM576 318h114q1 67 -6 94q-11 47 -48 47q-39 0 -52 -48q-8 -29 -8 -93z" />
    <glyph glyph-name="Scaron" unicode="&#x160;" 
d="M76 197h41q10 -51 54.5 -82t103.5 -31q41 0 68 16q33 19 33 56q0 35 -36 60q-32 23 -136 66q-151 63 -151 209q0 114 78 177q72 58 188 58q96 0 211 -43q-33 -73 -39 -149h-40q-9 46 -42 75q-36 32 -87 32q-39 0 -68 -16q-36 -21 -36 -56q0 -34 37 -57q13 -8 92 -43
l77 -34q125 -55 125 -199q0 -120 -79 -185q-74 -60 -198 -60q-97 0 -220 43q19 89 24 163zM408 937h79l-123 -181h-125l-121 181h77l107 -93z" />
    <glyph glyph-name="scaron" unicode="&#x161;" horiz-adv-x="481" 
d="M67 157h39q26 -86 128 -86q66 0 66 42q0 18 -11.5 26.5t-45.5 19.5l-72 23q-129 41 -129 154q0 96 70 147q61 44 157 44q75 0 155 -29q-14 -65 -20 -125h-38q-21 78 -107 78q-22 0 -42 -9q-24 -12 -24 -33q0 -20 20 -32q13 -8 57 -21l69 -21q118 -36 118 -155
q0 -93 -72 -143q-63 -44 -159 -44q-83 0 -175 30q6 45 16 134zM347 769h79l-123 -181h-125l-121 181h77l107 -93z" />
    <glyph glyph-name="Ydieresis" unicode="&#x178;" horiz-adv-x="685" 
d="M456 317q-2 -56 -2 -84q0 -122 13 -233q-54 9 -120 9q-48 0 -122 -9q10 137 10 289q0 9 -22 52q-34 65 -105 198l-101 177q63 -9 142 -9q82 0 126 9q25 -70 136 -292q80 162 127 292q50 -9 68 -9q38 0 70 9q-75 -120 -206 -372zM246 925q34 0 60 -25t26 -60
q0 -34 -25.5 -60t-60.5 -26q-34 0 -59.5 26t-25.5 60q0 35 25.5 60t59.5 25zM480 925q34 0 59.5 -25t25.5 -60t-25.5 -60.5t-59.5 -25.5q-35 0 -60.5 25.5t-25.5 60.5t25.5 60t60.5 25z" />
    <glyph glyph-name="florin" unicode="&#x192;" 
d="M563 550l-28 -7q-59 76 -94 76q-18 0 -24 -17q-5 -12 -9.5 -58t-10.5 -106l-6 -53q23 0 63 2q46 3 63 3q-9 -29 -9 -40q0 -26 2 -33q-54 5 -130 5q-11 -97 -32 -201q-19 -95 -41 -145q-31 -70 -93 -124q-89 -77 -206 -77q-25 0 -75 6q21 70 25 151l30 9q59 -79 89 -79
q18 0 26.5 18t13.5 74q8 87 21 169l32 199q-65 0 -111 -5q10 27 10 44q0 11 -2 29q15 0 57 -3q36 -2 57 -2q22 137 106 225q94 97 236 97q43 0 67 -4q-22 -72 -27 -153z" />
    <glyph glyph-name="circumflex" unicode="&#x2c6;" horiz-adv-x="278" 
d="M32 588h-77l121 181h125l123 -181h-79l-106 93z" />
    <glyph glyph-name="tilde" unicode="&#x2dc;" horiz-adv-x="278" 
d="M284 749h54q-9 -58 -39 -98q-36 -47 -89 -47q-42 0 -99 26t-70 26q-34 0 -47 -48h-53q8 56 36 97q34 50 85 50q35 0 94 -26t79 -26q31 0 49 46z" />
    <glyph glyph-name="endash" unicode="&#x2013;" horiz-adv-x="500" 
d="M-1 217v116h502v-116h-502z" />
    <glyph glyph-name="emdash" unicode="&#x2014;" horiz-adv-x="1000" 
d="M130 333h740v-116h-740v116z" />
    <glyph glyph-name="quoteleft" unicode="&#x2018;" horiz-adv-x="296" 
d="M231 723l36 -19l-40 -164q-23 -93 -38 -122q-26 -48 -77 -48q-35 0 -58.5 22t-23.5 56q0 24 14 49q12 21 50 65z" />
    <glyph glyph-name="quoteright" unicode="&#x2019;" horiz-adv-x="296" 
d="M65 372l-36 19l40 164q23 93 38 122q26 48 77 48q35 0 58.5 -22t23.5 -56q0 -24 -14 -49q-12 -21 -50 -65z" />
    <glyph glyph-name="quotesinglbase" unicode="&#x201a;" horiz-adv-x="296" 
d="M66 -150l-36 19l40 164q23 93 38 122q26 48 77 48q35 0 58.5 -22t23.5 -56q0 -24 -14 -49q-12 -21 -50 -65z" />
    <glyph glyph-name="quotedblleft" unicode="&#x201c;" horiz-adv-x="519" 
d="M459 723l36 -19l-40 -164q-23 -93 -38 -122q-26 -48 -77 -48q-35 0 -58.5 22t-23.5 56q0 24 14 49q12 21 50 65zM225 723l36 -19l-40 -164q-23 -93 -38 -122q-26 -48 -77 -48q-35 0 -58.5 22t-23.5 56q0 24 14 49q12 21 50 65z" />
    <glyph glyph-name="quotedblright" unicode="&#x201d;" horiz-adv-x="519" 
d="M60 372l-36 19l40 164q23 93 38 122q26 48 77 48q35 0 58.5 -22t23.5 -56q0 -24 -14 -49q-12 -21 -50 -65zM294 372l-36 19l40 164q23 93 38 122q26 48 77 48q35 0 58.5 -22t23.5 -56q0 -24 -14 -49q-12 -21 -50 -65z" />
    <glyph glyph-name="quotedblbase" unicode="&#x201e;" horiz-adv-x="519" 
d="M60 -150l-36 19l40 164q23 93 38 122q26 48 77 48q35 0 58.5 -22t23.5 -56q0 -24 -14 -49q-12 -21 -50 -65zM294 -150l-36 19l40 164q23 93 38 122q26 48 77 48q35 0 58.5 -22t23.5 -56q0 -24 -14 -49q-12 -21 -50 -65z" />
    <glyph glyph-name="dagger" unicode="&#x2020;" 
d="M381 374v-76q0 -225 9 -298q-47 9 -88 9q-39 0 -98 -9q8 88 8 374q-97 0 -174 -4q7 29 7 69q0 36 -7 66q97 -5 174 -5q0 72 -8 216q46 -9 96 -9q52 0 91 9q-9 -98 -9 -216q103 0 173 5q-7 -34 -7 -71q0 -28 7 -67q-66 7 -174 7z" />
    <glyph glyph-name="daggerdbl" unicode="&#x2021;" 
d="M215 279v158q-102 0 -176 -6q6 30 6 69q0 29 -6 62q44 -6 176 -6q0 108 -5 160q56 -9 92 -9q38 0 81 9q-6 -106 -6 -160q118 0 176 6q-6 -69 -6 -66q0 -5 6 -65q-59 6 -176 6v-159q32 0 87 2q65 3 89 3q-6 -44 -6 -68q0 -14 6 -62q-47 6 -176 6q0 -9 6 -159q-45 6 -85 6
q-45 0 -89 -6q6 80 6 159q-101 1 -176 -7q6 32 6 65q0 23 -6 67q150 -5 176 -5z" />
    <glyph glyph-name="bullet" unicode="&#x2022;" horiz-adv-x="500" 
d="M68 359q0 76 54 128.5t128 52.5q75 0 128.5 -53t53.5 -128t-53 -128.5t-129 -53.5q-75 0 -128.5 53t-53.5 129z" />
    <glyph glyph-name="ellipsis" unicode="&#x2026;" horiz-adv-x="1000" 
d="M271 95q0 -43 -30.5 -73.5t-73.5 -30.5t-73.5 30.5t-30.5 73.5q0 42 30.5 73t73.5 31t73.5 -31t30.5 -73zM937 95q0 -43 -30.5 -73.5t-73.5 -30.5t-73.5 30.5t-30.5 73.5q0 42 30.5 73t73.5 31t73.5 -31t30.5 -73zM604 95q0 -43 -30.5 -73.5t-73.5 -30.5t-73.5 30.5
t-30.5 73.5q0 42 30.5 73t73.5 31t73.5 -31t30.5 -73z" />
    <glyph glyph-name="perthousand" unicode="&#x2030;" horiz-adv-x="1167" 
d="M239 545q0 109 -41 109q-40 0 -40 -103q0 -64 7 -89q8 -32 34 -32t35 38q5 22 5 77zM201 708q69 0 116 -40q53 -44 53 -122q0 -74 -47.5 -122t-121.5 -48q-78 0 -126 45t-48 122q0 70 47.5 117.5t126.5 47.5zM582 322q73 0 119 -41q50 -45 50 -123q0 -74 -48.5 -120.5
t-119.5 -46.5q-80 0 -128 45.5t-48 118.5q0 70 46.5 118.5t128.5 48.5zM620 155q0 68 -12 94q-8 19 -28 19t-28 -14q-14 -23 -14 -89q0 -75 12 -101q8 -19 29 -19q30 0 38 44q3 16 3 66zM1013 166q0 102 -41 102q-25 0 -34 -29q-7 -21 -7 -74q0 -56 3 -72q8 -48 38 -48
q28 0 36 35q5 21 5 86zM975 322q75 0 122 -45.5t47 -119.5q0 -71 -48.5 -118.5t-119.5 -47.5t-119 38q-57 44 -57 127q0 67 41 113q48 53 134 53zM531 730h74l-357 -759h-74z" />
    <glyph glyph-name="guilsinglleft" unicode="&#x2039;" horiz-adv-x="296" 
d="M32 273l30 40q32 42 115 171q44 -40 88 -60q-81 -104 -115 -150q37 -51 112 -151q-48 -30 -86 -63q-38 61 -144 213z" />
    <glyph glyph-name="guilsinglright" unicode="&#x203a;" horiz-adv-x="296" 
d="M264 271l-30 -40q-32 -42 -115 -171q-44 40 -88 60q81 104 115 150q-36 52 -112 151q48 30 86 63q38 -61 144 -213z" />
    <glyph glyph-name="trademark" unicode="&#x2122;" horiz-adv-x="1000" 
d="M281 517q0 -109 6 -195q-62 5 -75 5q-41 0 -70 -5q7 54 7 194q0 71 -3 141q-57 0 -111 -6q3 18 3 34q0 -5 -3 31q59 -5 179 -5q118 0 181 5q-4 -18 -4 -34q0 -13 4 -31q-55 6 -112 6q-2 -62 -2 -140zM796 322q-7 82 -28 238q-58 -112 -110 -236q-30 3 -31 3l-30 -3
q-42 101 -109 236q-23 -110 -30 -238q-23 5 -40 5t-39 -5q54 204 70 394q30 -5 55 -5q24 0 56 5q40 -107 109 -233q38 79 105 233q28 -5 53 -5q26 0 56 5q30 -293 57 -394q-42 5 -73 5q-33 0 -71 -5z" />
    <glyph glyph-name="dotlessi" horiz-adv-x="333" 
d="M62 278q0 147 -8 246q48 -9 112 -9q58 0 113 9q-9 -123 -9 -267q0 -166 6 -257q-70 9 -117 9q-27 0 -106 -9l4 62q5 73 5 216z" />
    <glyph glyph-name="Lslash" horiz-adv-x="574" 
d="M306 379v-51q0 -38 1 -113.5t1 -113.5q165 0 241 12q-5 -37 -5 -58q0 -27 5 -55q-108 9 -211 9q-142 0 -269 -9q15 77 15 251q-51 -29 -83 -52q3 24 3 47t-3 47q34 15 83 46q0 43 -5 195q-1 65 -9 182q63 -9 128 -9q67 0 118 9q-10 -108 -10 -249q86 49 135 82
q-3 -24 -3 -47t3 -47q-56 -27 -135 -76z" />
    <glyph glyph-name="lslash" horiz-adv-x="333" 
d="M270 419v-170q0 -78 6 -249q-65 9 -110 9q-30 0 -113 -9q9 142 9 203v100q-56 -32 -82 -50q3 22 3 42t-3 42q35 15 82 44v139q0 74 -5 162l-4 78q48 -9 112 -9t112 9q-7 -180 -7 -263q56 32 82 50q-3 -22 -3 -42t3 -42q-35 -15 -82 -44z" />
    <glyph glyph-name="caron" horiz-adv-x="278" 
d="M245 769h79l-123 -181h-125l-121 181h77l107 -93z" />
    <glyph glyph-name="breve" horiz-adv-x="278" 
d="M-22 757h57q5 -28 12 -40q9 -15 32 -25.5t51 -10.5q102 0 114 76h58q-7 -111 -83 -151q-35 -18 -83 -18q-67 0 -107 33q-48 39 -51 136z" />
    <glyph glyph-name="dotaccent" horiz-adv-x="278" 
d="M139 757q35 0 60.5 -25.5t25.5 -59.5t-25.5 -60t-60.5 -26q-34 0 -59.5 26t-25.5 60t25.5 59.5t59.5 25.5z" />
    <glyph glyph-name="ring" horiz-adv-x="278" 
d="M139 571q-45 0 -78 33t-33 78t33 78t78 33t78 -33t33 -78t-33 -78t-78 -33zM139 630q21 0 36.5 15.5t15.5 36.5t-15.5 36.5t-36.5 15.5t-36.5 -15.5t-15.5 -36.5t15.5 -36.5t36.5 -15.5z" />
    <glyph glyph-name="ogonek" horiz-adv-x="278" 
d="M299 -119l30 -32q-55 -67 -131 -67q-43 0 -69 23t-26 65q0 75 120 146h50q-73 -70 -73 -113q0 -50 39 -50q32 0 60 28z" />
    <glyph glyph-name="hungarumlaut" horiz-adv-x="278" 
d="M62 588h-68l109 150q33 46 75 46q60 0 60 -54q0 -38 -56 -71zM252 588h-68l109 150q33 46 75 46q60 0 60 -54q0 -38 -56 -71z" />
    <glyph glyph-name="fraction" horiz-adv-x="167" 
d="M254 723h79l-418 -749h-79z" />
    <glyph glyph-name="minus" horiz-adv-x="667" 
d="M603 365v-109h-539v109h539z" />
    <glyph glyph-name="fi" horiz-adv-x="685" 
d="M368 626l-14 -6q-64 35 -111 35q-52 0 -52 -37q0 -35 74 -111q67 0 102 4q-5 -18 -5 -34q0 -11 5 -44q-75 5 -89 5q0 -204 8 -438q-58 9 -114 9q-27 0 -108 -9q7 96 7 291q0 98 -2 147q-34 0 -77 -5q5 23 5 42q0 21 -5 36q9 0 39 -2q24 -2 38 -2q10 73 24 108
q18 47 62 89q71 69 167 69q18 0 65 -5q-16 -60 -19 -142zM414 278q0 147 -8 246q48 -9 112 -9q58 0 113 9q-9 -123 -9 -267q0 -166 6 -257q-70 9 -117 9q-27 0 -106 -9l4 62q5 73 5 216zM413 672q0 42 31.5 73.5t74.5 31.5q42 0 73.5 -31t31.5 -74t-31.5 -74t-73.5 -31
q-43 0 -74.5 31.5t-31.5 73.5z" />
    <glyph glyph-name="fl" horiz-adv-x="685" 
d="M368 626l-14 -6q-64 35 -111 35q-52 0 -52 -37q0 -35 74 -111q67 0 102 4q-5 -18 -5 -34q0 -11 5 -44q-75 5 -89 5q0 -204 8 -438q-58 9 -114 9q-27 0 -108 -9q7 96 7 291q0 98 -2 147q-34 0 -77 -5q5 23 5 42q0 21 -5 36q9 0 39 -2q24 -2 38 -2q10 73 24 108
q18 47 62 89q71 69 167 69q18 0 65 -5q-16 -60 -19 -142zM414 203v317q0 74 -5 162l-4 78q48 -9 112 -9t112 9q-7 -182 -7 -262v-249q0 -78 6 -249q-65 9 -110 9q-30 0 -113 -9q9 142 9 203z" />
    </font>
</defs>
</svg>
