<svg id="Group_14" data-name="Group 14" xmlns="http://www.w3.org/2000/svg" width="45" height="45" viewBox="0 0 45 45">
  <g id="Group_13" data-name="Group 13">
    <circle id="Oval_2" data-name="Oval 2" cx="2.5" cy="2.5" r="2.5" fill="#fff"/>
    <circle id="Oval_2-2" data-name="Oval 2" cx="2.5" cy="2.5" r="2.5" transform="translate(10)" fill="#fff"/>
    <circle id="Oval_2-3" data-name="Oval 2" cx="2.5" cy="2.5" r="2.5" transform="translate(20)" fill="#fff"/>
    <circle id="Oval_2-4" data-name="Oval 2" cx="2.5" cy="2.5" r="2.5" transform="translate(30)" fill="#fff"/>
    <circle id="Oval_2-5" data-name="Oval 2" cx="2.5" cy="2.5" r="2.5" transform="translate(40)" fill="#fff"/>
  </g>
  <g id="Group_13-2" data-name="Group 13" transform="translate(0 10)">
    <circle id="Oval_2-6" data-name="Oval 2" cx="2.5" cy="2.5" r="2.5" fill="#fff"/>
    <circle id="Oval_2-7" data-name="Oval 2" cx="2.5" cy="2.5" r="2.5" transform="translate(10)" fill="#fff"/>
    <circle id="Oval_2-8" data-name="Oval 2" cx="2.5" cy="2.5" r="2.5" transform="translate(20)" fill="#fff"/>
    <circle id="Oval_2-9" data-name="Oval 2" cx="2.5" cy="2.5" r="2.5" transform="translate(30)" fill="#fff"/>
    <circle id="Oval_2-10" data-name="Oval 2" cx="2.5" cy="2.5" r="2.5" transform="translate(40)" fill="#fff"/>
  </g>
  <g id="Group_13-3" data-name="Group 13" transform="translate(0 20)">
    <circle id="Oval_2-11" data-name="Oval 2" cx="2.5" cy="2.5" r="2.5" fill="#fff"/>
    <circle id="Oval_2-12" data-name="Oval 2" cx="2.5" cy="2.5" r="2.5" transform="translate(10)" fill="#fff"/>
    <circle id="Oval_2-13" data-name="Oval 2" cx="2.5" cy="2.5" r="2.5" transform="translate(20)" fill="#fff"/>
    <circle id="Oval_2-14" data-name="Oval 2" cx="2.5" cy="2.5" r="2.5" transform="translate(30)" fill="#fff"/>
    <circle id="Oval_2-15" data-name="Oval 2" cx="2.5" cy="2.5" r="2.5" transform="translate(40)" fill="#fff"/>
  </g>
  <g id="Group_13-4" data-name="Group 13" transform="translate(0 30)">
    <circle id="Oval_2-16" data-name="Oval 2" cx="2.5" cy="2.5" r="2.5" fill="#fff"/>
    <circle id="Oval_2-17" data-name="Oval 2" cx="2.5" cy="2.5" r="2.5" transform="translate(10)" fill="#fff"/>
    <circle id="Oval_2-18" data-name="Oval 2" cx="2.5" cy="2.5" r="2.5" transform="translate(20)" fill="#fff"/>
    <circle id="Oval_2-19" data-name="Oval 2" cx="2.5" cy="2.5" r="2.5" transform="translate(30)" fill="#fff"/>
    <circle id="Oval_2-20" data-name="Oval 2" cx="2.5" cy="2.5" r="2.5" transform="translate(40)" fill="#fff"/>
  </g>
  <g id="Group_13-5" data-name="Group 13" transform="translate(0 40)">
    <circle id="Oval_2-21" data-name="Oval 2" cx="2.5" cy="2.5" r="2.5" fill="#fff"/>
    <circle id="Oval_2-22" data-name="Oval 2" cx="2.5" cy="2.5" r="2.5" transform="translate(10)" fill="#fff"/>
    <circle id="Oval_2-23" data-name="Oval 2" cx="2.5" cy="2.5" r="2.5" transform="translate(20)" fill="#fff"/>
    <circle id="Oval_2-24" data-name="Oval 2" cx="2.5" cy="2.5" r="2.5" transform="translate(30)" fill="#fff"/>
    <circle id="Oval_2-25" data-name="Oval 2" cx="2.5" cy="2.5" r="2.5" transform="translate(40)" fill="#fff"/>
  </g>
</svg>
