<svg xmlns="http://www.w3.org/2000/svg" width="108.5" height="55" viewBox="0 0 108.5 55">
  <g id="Group_6" data-name="Group 6" transform="translate(-0.5)">
    <rect id="Rectangle_3" data-name="Rectangle 3" width="106" height="3" transform="translate(3 52)" fill="#fff"/>
    <rect id="Rectangle_3-2" data-name="Rectangle 3" width="60" height="3" transform="translate(3)" fill="#fff"/>
    <rect id="Rectangle_3-3" data-name="Rectangle 3" width="55" height="3" transform="translate(3.5) rotate(90)" fill="#fff"/>
    <path id="WMWI" d="M56,17.525H55.15L47.15,0h23.6L62.725,17.524h-.85L58.95,11.1,56,17.525ZM52.675,3.5h0L55.7,9.85,57.25,6.9,55.575,3.5h-2.9Zm6.725,0,2.9,6.2,2.925-6.2ZM8.849,17.525H8L0,0H23.6L15.576,17.524h-.851L11.8,11.1,8.85,17.525ZM5.525,3.5,8.55,9.85,10.1,6.9,8.425,3.5Zm6.725,0,2.9,6.2,2.925-6.2ZM81.225,17.525H74v-3.5h1.876V3.5H74V0h7.225V3.5h-1.85V14.025h1.85v3.5Zm-37.325,0H26.85V0h1.2l7.325,6.65L42.675,0H43.9V17.524ZM30.35,6.8v7.224H40.4V6.8l-5.025,4.575Z" transform="translate(15.625 18.475)" fill="#fff"/>
  </g>
</svg>
